<?xml version="1.0" encoding="utf-8"?>
<!-- Generator: Adobe Illustrator 16.0.4, SVG Export Plug-In . SVG Version: 6.00 Build 0)  -->
<!DOCTYPE svg PUBLIC "-//W3C//DTD SVG 1.1//EN" "http://www.w3.org/Graphics/SVG/1.1/DTD/svg11.dtd">
<svg version="1.1" id="Layer_1" xmlns="http://www.w3.org/2000/svg" xmlns:xlink="http://www.w3.org/1999/xlink" x="0px" y="0px"
	 width="248px" height="56px" viewBox="0 0 248 56" enable-background="new 0 0 248 56" xml:space="preserve">
<g display="none">
	<path display="inline" d="M245.356,28.167l1.001-0.441c0.662-0.292,1.081-0.961,1.057-1.688c-0.017-0.5-0.188-1.765-0.258-2.208
		c-0.389-2.514-1.57-4.84-3.719-7.322c-0.722-0.834-1.243-1.359-1.8-1.884c-1.345-1.348-3.536-3.126-7.062-3.126
		c-4.741,0-8.178,2.227-10.493,4.599c-0.644-0.81-1.346-1.631-2.056-2.333c-1.464-1.447-3.158-2.181-5.037-2.181
		c-1.638,0-2.91,0.389-4.019,0.899l-0.688-0.816c-0.543-0.646-1.464-0.816-2.2-0.408l-10.758,5.964
		c-1.458-1.783-2.597-2.958-3.535-3.655c-1.281-0.952-3.409-2.087-6.272-2.087c-2.693,0-5.447,0.846-7.904,2.408
		c-0.251-0.135-0.535-0.208-0.829-0.208h-0.098l0.204-1.058c0.102-0.531-0.042-1.079-0.391-1.49l-3.238-3.82
		c-0.568-0.67-1.539-0.82-2.282-0.353L171.741,9l0.417-2.215c0.1-0.531-0.045-1.078-0.395-1.487l-2.968-3.479
		c-0.336-0.393-0.825-0.62-1.341-0.62h-5.003c-0.78,0-1.462,0.514-1.688,1.254c-0.165-0.053-0.343-0.113-0.505-0.169l-0.49-0.167
		c-1.353-0.46-2.751-0.936-4.913-0.936c-2.551,0-4.977,0.685-7.015,1.98c-3.002,1.908-4.937,4.924-5.463,8.437
		c-1.492,0.162-2.759,0.563-3.905,1.229c-0.715,0.415-1.373,0.923-2.008,1.557c-2.292-1.904-4.875-2.801-7.996-2.801
		c-4.465,0-7.702,2.247-9.621,4.116c-0.668-0.837-1.452-1.727-2.334-2.472c-0.734-0.621-2.281-1.662-4.392-1.662
		c-1.696,0-3.081,0.444-4.075,0.892l-0.665-0.791c-0.543-0.646-1.465-0.817-2.202-0.409l-5.725,3.175
		c0.068-0.35,0.103-0.714,0.103-1.091c0-2.236-1.216-3.804-2.462-5.219c-0.156-0.178-0.312-0.357-0.466-0.535
		c-0.808-0.93-1.57-1.808-2.353-2.401c-0.023-0.018-0.047-0.035-0.071-0.051c-1.062-0.726-2.379-1.125-3.706-1.125
		c-1.334,0-2.545,0.362-3.573,0.854L83.555,1.09c-0.55-0.617-1.452-0.769-2.172-0.366l-7.333,4.093l-3.333-3.728
		c-0.55-0.615-1.449-0.767-2.168-0.367L52.897,9.418c-0.836,0.464-1.153,1.512-0.717,2.366l0.279,0.546
		c-1.285-0.564-2.649-0.849-4.083-0.849c-1.489,0-2.894,0.215-4.251,0.652c-1.073-2.448-3.084-4.833-4.755-6.351
		c-1.925-1.844-4.345-3.211-7.002-3.957c-2.649-0.743-5.812-1.088-9.954-1.088c-6.508,0-12.536,1.115-16.539,3.059
		C2.258,5.554,0.5,8.068,0.5,11.485c0,1.466,0.466,2.839,1.384,4.08c0.834,1.126,1.497,1.889,2.198,2.698l0.293,0.339
		c1.336,1.546,3.068,3.126,5.799,3.168l-1.811,9.874c-0.132,0.724-0.248,0.813-0.253,0.816c-0.059,0.043-0.426,0.254-1.91,0.254
		H4.895c-0.852,0-1.583,0.61-1.737,1.453l-0.983,5.354c-0.1,0.542,0.057,1.102,0.424,1.511L5.974,44.8
		c0.335,0.374,0.812,0.589,1.312,0.589h18.433c0.853,0,1.584-0.613,1.738-1.458l0.725-3.979c0.676,0.796,1.394,1.593,2.147,2.383
		c5.92,6.209,12.995,11.955,24.575,11.955c3.399,0,6.665-0.82,9.194-2.311c2.919-1.72,4.528-4.152,4.528-6.85
		c0-0.574-0.054-1.125-0.161-1.65h38.858c-0.003,0.093-0.005,0.189-0.005,0.286c0,2.311,1.549,4.79,4.875,7.801
		c2.803,2.537,7.078,3.935,12.035,3.935c7.254,0,14.368-3.559,17.559-8.465l0.166,0.183c0.469,0.513,1.19,0.703,1.85,0.487
		l3.799-1.244c0.447-0.147,0.808-0.463,1.017-0.865c0.295,0.115,0.61,0.245,0.883,0.357c0.422,0.174,0.899,0.37,1.396,0.562
		c1.342,0.519,3.717,1.124,5.992,1.124c3.938,0,7.597-1.952,9.989-5.217c1.322,1.103,3.015,1.994,5.238,1.994
		c4.637,0,7.68-1.641,10.096-3.229c1.764,1.375,3.918,2.462,7.762,2.462c2.349,0,4.52-0.625,6.475-1.858l0.959,1.078
		c0.335,0.376,0.814,0.593,1.316,0.593h26.354c0.851,0,1.581-0.611,1.736-1.453l0.157-0.853c2.157,1.437,4.915,2.577,7.823,2.577
		c3.329,0,6.399-0.849,8.646-2.389c2.617-1.796,4.059-4.491,4.059-7.589C247.5,31.389,246.552,29.582,245.356,28.167z
		 M152.274,31.624c0,1.333-0.895,2.009-2.659,2.009c-0.974,0-1.847-0.19-2.598-0.567c-0.58-0.667-1.06-1.504-1.493-2.315
		c-0.068-0.13-0.153-0.25-0.252-0.358l-2.43-2.675c0.373-1.342,1.013-1.342,1.499-1.342c0.37,0,0.838,0.058,1.317,0.164
		c0.829,0.182,1.651-0.251,1.988-1.004l2.724,2.797C151.753,29.749,152.274,30.401,152.274,31.624z"/>
	<path display="inline" fill="#FFFFFF" d="M239.414,24.511l3.808-1.687l-0.055-0.574c-0.138-1.469-0.61-3.274-1.232-4.712
		c-1.479-3.415-4.035-5.22-7.394-5.22c-3.537,0-7.087,1.615-9.738,4.43c-0.76,0.807-1.411,1.691-1.972,2.62
		c0.025-0.2,0.041-0.368,0.041-0.487c0-3.521-2.655-6.495-5.798-6.495c-2.358,0-4.3,0.987-5.872,2.17l0.607-3.229l-13.341,7.371
		c-1.529-3.821-5.048-6.415-8.85-6.415c-3.263,0-6.131,1.28-8.269,2.875l0.276-0.71h-6.192l1.432-7.638l-10.852,6.854l2.196-11.664
		h-6.122l-0.141,0.622c-0.062,0.274-0.263,0.793-0.581,0.793c-0.337,0-0.757-0.142-1.339-0.339
		c-0.127-0.042-0.259-0.087-0.397-0.133c-0.126-0.042-0.251-0.083-0.378-0.126c-1.14-0.383-2.431-0.817-4.33-0.817
		c-4.399,0-7.064,1.946-8.526,3.579c-1.63,1.821-2.631,4.24-2.806,6.734c-1.896,0.071-3.265,0.422-4.482,1.135
		c-0.874,0.511-1.716,1.267-2.558,2.299c-2.079-2.176-4.895-3.362-8.031-3.362c-2.972,0-6.02,1.217-8.362,3.339
		c-0.895,0.81-1.644,1.708-2.235,2.667c-0.202-3.35-2.704-6.006-5.75-6.006c-2.358,0-4.269,0.958-5.873,2.171l0.608-3.231
		L92.54,19.275l1.291-6.95c0.755-1.033,1.126-2.189,1.126-3.488c0-2.378-1.826-4.039-4.44-4.039c-3.236,0-7.341,3.018-7.341,6.41
		c0,2.128,1.385,3.709,3.485,4.131l-7.043,3.901l3.426-18.437L68.687,8.781l1.509-7.963L53.17,10.267l2.792,5.547l0.817-0.518
		c0.228-0.145,0.722-0.458,1.095-0.63c-0.011,0.062-0.023,0.133-0.039,0.216l-0.658,3.581c-0.493-1.135-1.167-2.188-1.99-3.084
		c-1.834-1.996-4.284-3.094-6.897-3.094c-2.915,0-5.567,1.173-7.382,2.36c0.086-0.5,0.139-1.038,0.139-1.612
		c0-5.033-3.215-8.733-9.054-10.42c-2.524-0.729-5.51-1.054-9.682-1.054c-7.134,0-13,1.575-15.854,2.923
		c-2.985,1.41-4.629,3.708-4.629,6.471c0,1.298,0.5,2.573,1.373,3.497c0.977,1.035,2.32,1.582,3.882,1.582
		c3.084,0,5.323-1.936,5.323-4.602c0-0.815-0.14-1.513-0.425-2.11c0.486-0.208,1.143-0.436,1.83-0.56L9.642,31.492
		c-0.253,1.379-0.483,1.988-3.288,1.988H4.538l-1.157,6.339h19.49l1.157-6.339h-1.429c-2.122,0-2.122-0.728-2.122-1.077
		c0-0.12,0.015-0.376,0.038-0.504l1.187-6.54h0.148c1.952,6.511,5.822,12.396,10.945,16.626c5.567,4.596,12.215,7.025,19.226,7.025
		c7.288,0,12.377-3.309,12.377-8.047c0-1.124-0.278-2.12-0.815-2.951h47.55c-1.642,1.507-2.471,3.25-2.471,5.202
		c0,2.306,1.707,4.221,4.936,5.537c2.723,1.11,5.793,1.504,7.594,1.504c9.293,0,16.148-4.097,17.774-10.265l0.873,2.554l4.804-1.556
		l0.017-0.564c0.006-0.218,0.044-0.324,0.063-0.366c0.007,0,0.015-0.001,0.023-0.001c0.422,0,1.515,0.426,2.671,0.876
		c0.315,0.123,0.648,0.253,0.999,0.387c1.753,0.667,3.559,1.006,5.369,1.006c4.34,0,8.081-2.384,9.997-6.222
		c1.075,1.831,2.977,2.846,5.451,2.846c3.775,0,6.895-1.709,9.478-3.498c1.894,1.768,4.204,2.628,7.04,2.628
		c3.674,0,7.092-1.477,9.625-4.157c0.073-0.078,0.146-0.156,0.218-0.235l-0.814,4.308h27.48l0.743-3.985
		c0.192,0.26,0.395,0.512,0.609,0.75c1.913,2.119,4.638,3.286,7.671,3.286c2.889,0,5.731-0.702,7.8-1.927
		c2.54-1.505,3.883-3.691,3.883-6.324C242.968,27.384,241.419,25.215,239.414,24.511z M23.016,18.934L24.922,8.58
		c3.456,0.013,5.208,1.379,5.208,4.061C30.131,15.958,26.989,18.687,23.016,18.934z M34.442,28.848
		c-0.727-1.646-1.251-3.347-1.542-5.035c0.712-0.263,1.379-0.599,1.968-0.943c-0.379,1.28-0.565,2.534-0.565,3.788
		C34.302,27.415,34.349,28.146,34.442,28.848z M47.663,18.965c0.27,0,0.901,0,0.901,2.679c0,5.804-2.343,10.045-3.563,10.045
		c-0.386,0-1.104,0-1.104-2.321C43.896,23.333,46.146,18.965,47.663,18.965z M55.045,40.303c-0.67,0.682-2.032,1.056-3.833,1.056
		h-0.02c-3.76-0.006-7.233-1.479-10.133-3.798c1.063,0.344,2.225,0.52,3.467,0.52c2.429,0,4.708-0.628,6.795-1.87l-0.32,1.769h1.716
		c2.771,0,2.775,0.415,2.783,1.169C55.505,39.608,55.356,39.986,55.045,40.303z M70.724,14.901l-3.001,16.576
		c-0.115,0.635-0.15,0.827-1.592,0.827c-1.231,0-1.54-0.104-1.605-0.156c-0.002-0.004-0.042-0.077-0.042-0.357
		c0-0.12,0.043-0.51,0.089-0.759l3.203-17.472l1.123,2.225l0.755-0.556c0.441-0.325,0.817-0.535,1.122-0.627
		C70.762,14.685,70.746,14.784,70.724,14.901z M81.697,25.368l-1.153,6.224c-0.098,0.529-0.198,0.712-1.508,0.712
		c-1.715,0-1.715-0.146-1.715-0.582c0-0.1,0.024-0.305,0.054-0.466l1.346-7.182l1.097,2.178l0.747-0.5
		c0.585-0.393,0.956-0.598,1.184-0.704C81.736,25.146,81.718,25.253,81.697,25.368z M93.431,31.407
		c-0.129,0.714-0.156,0.862-1.49,0.862c-0.574,0-1.273-0.018-1.595-0.159c-0.087-0.038-0.12-0.052-0.12-0.286
		c0-0.107,0.031-0.352,0.071-0.569l1.316-7.057l1.033,2.035l0.737-0.468c0.588-0.374,0.961-0.561,1.189-0.654L93.431,31.407z
		 M107.371,23.886l-1.374,7.502c-0.142,0.775-0.167,0.915-1.406,0.915c-1.41,0-1.41-0.354-1.41-0.667
		c0-0.104,0.013-0.229,0.038-0.369l1-5.577c0.263-1.468,1.917-2.958,2.915-2.958c0.21,0,0.315,0.023,0.361,0.038
		c0.006,0.028,0.014,0.077,0.014,0.152C107.503,23.058,107.401,23.721,107.371,23.886z M115.716,31.279
		c0.011-0.074,0.023-0.146,0.035-0.211l0.93-4.952c0.315,0.992,0.836,1.944,1.533,2.797
		C117.24,29.479,116.333,30.346,115.716,31.279z M126.145,42.608c-1.454,0.566-3.311,0.933-4.73,0.933
		c-3.236,0-3.682-0.82-3.682-1.708c0-0.496,0.241-1.006,0.733-1.548c1.562,0.551,2.883,0.865,4.627,0.865
		c0.408,0,1.105-0.071,1.913-0.153c0.949-0.097,2.025-0.205,2.717-0.205c0.422,0,0.652,0.051,0.766,0.089
		C128.36,41.437,127.487,42.085,126.145,42.608z M127.044,26.54c-0.405,0-0.748-0.68-0.748-1.485c0-3.036,1.264-6.004,2.207-6.004
		c0.188,0,0.629,0,0.629,1.264C129.132,23.983,128.031,26.54,127.044,26.54z M132.372,31.714c1.142-0.6,2.13-1.388,2.951-2.283
		l1.116,3.22C135.334,32.08,133.968,31.763,132.372,31.714z M149.547,34.453c-4.27,0-7.032-3.598-8.101-6.678l-0.255-0.735
		l-5.281,1.696c0.779-0.998,1.364-2.092,1.738-3.183c0.111-0.327,0.217-0.67,0.318-1.002c0.246-0.802,0.5-1.631,0.856-2.252
		c0.511-0.891,1.235-1.305,2.279-1.305c0.486,0,0.938,0.089,1.479,0.204l0.734,0.158l0.961-3.549
		c0.704,1.915,1.954,3.831,3.685,5.607l3.968,4.076c1.2,1.232,1.689,2.286,1.689,3.636
		C153.619,33.209,152.098,34.453,149.547,34.453z M156.829,16.102c-1.179-1.232-2.959-3.093-2.959-4.587
		c0-1.436,1.185-2.56,2.698-2.56c2.2,0,3.139,1.097,3.139,3.668c0,0.907-0.242,2.038-0.372,2.646l-0.207,0.968h3.017l-0.815,4.569
		L156.829,16.102z M163.895,24.197c-0.455-0.896-1.066-1.824-1.887-2.682l-0.336-0.351h2.79L163.895,24.197z M175.781,29.879
		c-0.785,0.568-1.677,1.112-2.356,1.112c-0.421,0-0.851-0.099-0.851-0.821c0-0.264,0.115-0.875,0.173-1.182l1.472-7.824h1.817
		c0.219,0,0.419,0.041,0.59,0.098c-0.536,1.38-1.147,3.087-1.147,5.429C175.479,27.872,175.582,28.96,175.781,29.879z
		 M186.211,31.689c-0.453,0-1.139,0-1.139-2.321c0-5.603,2.081-10.403,3.784-10.403c0.219,0,0.884,0,0.884,2.508
		C189.74,27.375,187.419,31.689,186.211,31.689z M198.317,31.458c-0.114,0.623-0.148,0.812-1.355,0.812h-0.243
		c1.448-2.086,2.371-4.571,2.612-7.099c0.053-0.024,0.103-0.047,0.148-0.065L198.317,31.458z M212.198,24.293l-1.265,6.943
		c-0.164,0.904-0.194,1.067-1.456,1.067c-1.393,0-1.393-0.332-1.393-0.684c0-0.147,0.008-0.193,0.047-0.41l0.975-5.451
		c0.248-1.386,1.837-3.026,2.932-3.026c0.201,0,0.31,0.018,0.362,0.032c0.006,0.033,0.013,0.088,0.013,0.171
		C212.412,22.986,212.393,23.231,212.198,24.293z M230.76,22.105c0.299-1.628,1.009-3.107,2.289-3.107c0.245,0,0.733,0,0.833,1.722
		L230.76,22.105z M234.627,30.993c-0.272,0.069-0.597,0.117-0.934,0.117c-1.171,0-2.457-1.255-2.938-2.763l3.187-1.412
		c-0.208,0.519-0.313,1.071-0.313,1.614C233.628,29.719,234.063,30.472,234.627,30.993z M221.789,32.304
		c-1.224,0-1.224-0.252-1.224-0.496c0-0.107,0.039-0.482,0.071-0.653l0.351-1.855c0.208,1.067,0.54,2.077,0.991,3.005H221.789z"/>
	<g display="inline">
		<path d="M35.81,26.572c0,6.445,3.474,10.01,8.716,10.01c7.225,0,12.193-6.277,12.193-12.807c0-5.662-3.595-9.976-8.275-9.976
			C41.321,13.8,35.81,20.229,35.81,26.572z M47.646,17.5c2.02,0,2.425,2.095,2.425,3.82c0,6.736-2.535,11.886-4.969,11.886
			c-1.827,0-2.663-1.212-2.663-3.804C42.44,24.114,44.463,17.5,47.646,17.5z"/>
		<path d="M62.994,31.858c0-0.275,0.025-0.555,0.102-0.973l5.002-27.147l-12.939,7.06l1.441,2.848
			c0.526-0.29,1.221-0.631,1.814-0.631c0.665,0,1.035,0.35,1.035,1.074c0,0.23-0.019,0.42-0.051,0.597l-3.07,16.848
			c-0.326,1.794-1.01,2.234-2.815,2.234h-0.22l-0.526,2.694h0.288c2.268,0,3.952,0.453,3.952,2.745c0,2.303-2.377,3.666-5.868,3.666
			c-10.145,0-18.637-9.788-19.909-20.071c4.358-1.211,8.309-4.457,8.309-9.805c0-4.799-3.076-7.604-7.902-8.953
			c-2.654-0.742-5.829-1.006-9.293-1.006c-5.994,0-11.315,0.94-15.177,2.711c-2.401,1.101-3.85,2.838-3.85,5.133
			c0,2.191,1.662,3.667,3.68,3.667c1.982,0,3.951-0.947,3.951-3.155c0-1.313-0.531-1.917-1.255-2.49
			c1.543-1.194,3.639-1.808,5.884-1.808L11.034,31.96c-0.411,2.247-1.698,3.053-4.545,3.053H5.76l-0.627,3.326h16.534l0.611-3.326
			h-0.339c-1.231,0-2.968-0.52-2.968-2.37c0-0.284,0.054-0.603,0.119-0.955l1.441-7.81h2.442
			c3.05,12.916,14.832,23.704,29.337,23.704c5.413,0,10.599-2.563,10.599-6.6c0-2.33-1.606-3.482-3.697-4.519H65.3l0.492-2.694
			h-0.577C63.624,33.769,62.994,33.076,62.994,31.858z M23.667,7.098c3.833,0,7.919,0.733,7.919,5.338
			c0,4.38-3.619,7.997-9.649,7.997h-0.763L23.667,7.098z"/>
		<path d="M131.996,33.223c-2.28,0-4.356,0.494-6.631,0.494c-1.349,0-2.51-0.448-2.51-1.773c0-0.508,0.162-0.921,0.407-1.279
			c1.32,0.412,2.661,0.75,4.155,0.75c3.544,0,6.509-1.892,8.208-4.979c0.872-1.585,1.125-3.788,2.153-5.304
			c0.749-1.104,1.812-1.628,3.341-1.654c0.06-0.001,0.13,0.002,0.199,0.005c0.03,0.001,0.059,0.001,0.091,0.003
			c0.072,0.005,0.146,0.012,0.221,0.018c0.024,0.002,0.048,0.004,0.072,0.006c0.087,0.008,0.172,0.017,0.252,0.025
			c0.1,0.011,0.193,0.021,0.268,0.027l1.543-5.695c-0.02,0-0.038,0-0.058,0c-0.213,0-0.411,0.02-0.614,0.033
			c-0.136,0.009-0.277,0.008-0.409,0.022c-0.203,0.023-0.396,0.065-0.59,0.102c-0.129,0.024-0.265,0.038-0.391,0.068
			c-0.193,0.047-0.377,0.115-0.562,0.177c-0.114,0.039-0.234,0.066-0.347,0.111c-0.291,0.116-0.573,0.251-0.845,0.408
			c-1.269,0.73-2.326,1.904-3.29,3.513c-1.721-2.268-3.882-4.399-8.123-4.399c-5.427,0-10.7,4.582-10.7,9.942
			c0,2.637,1.255,4.161,2.984,5.627c-2.03,0.501-3.961,2.029-4.579,4.298c-1.272-0.052-2.103-0.704-2.103-1.91
			c0-0.196,0.028-0.468,0.067-0.683l2.052-11.049c0.072-0.386,0.169-0.87,0.169-1.228c0-2.759-1.764-4.997-4.324-4.997
			c-3.124,0-5.104,1.91-8.089,4.741l0.814-4.399l-13.007,7.042l1.441,2.831c0.677-0.382,1.334-0.683,1.797-0.683
			c0.763,0,1.051,0.46,1.051,1.092c0,0.21-0.047,0.64-0.068,0.75l-1.17,6.395c-0.287,1.566-0.977,2.098-2.425,2.098h-0.271
			l-0.492,2.694h11.871l0.492-2.694h-0.322c-1.153,0-2.069-0.554-2.069-1.91c0-0.159,0.018-0.333,0.051-0.512l1.052-5.696
			c0.358-1.942,2.287-4.417,4.46-4.417c1.221,0,1.797,0.716,1.797,1.535c0,0.29-0.134,1.086-0.169,1.279l-1.374,7.52
			c-0.281,1.541-0.796,2.2-2.476,2.2h-0.305l-0.475,2.694h12.277c-2.222,1.057-6.325,2.933-6.325,6.769
			c0,3.429,6.454,5.509,11.125,5.509c9.481,0,16.517-4.634,16.517-11.494C137.812,34.365,135.133,33.223,131.996,33.223z
			 M130.622,20.757c0,4.105-1.542,7.298-3.544,7.298c-1.449,0-2.289-1.474-2.289-3.121c0-2.745,1.175-7.4,3.798-7.4
			C130.42,17.534,130.622,19.325,130.622,20.757z M116.225,41.8c0-1.262,0.908-2.36,1.917-3.291
			c1.674,0.872,3.481,1.125,4.918,1.125c1.417,0,3.217-0.332,4.629-0.341c0.071,0,0.145,0.004,0.217,0.006
			c0.07,0.002,0.14,0.003,0.211,0.008c0.073,0.005,0.146,0.016,0.219,0.023c0.062,0.008,0.126,0.013,0.187,0.022
			c0.077,0.013,0.15,0.034,0.225,0.053c0.055,0.013,0.111,0.022,0.164,0.038c0.074,0.023,0.142,0.056,0.211,0.085
			c0.047,0.021,0.098,0.036,0.143,0.061c0.067,0.034,0.124,0.081,0.185,0.124c0.039,0.029,0.083,0.051,0.119,0.083
			c0.057,0.05,0.101,0.114,0.147,0.175c0.028,0.036,0.063,0.065,0.089,0.105c0.043,0.071,0.071,0.157,0.102,0.241
			c0.016,0.042,0.04,0.077,0.052,0.124c0.035,0.135,0.055,0.286,0.055,0.455c0,2.558-5.579,4.16-8.869,4.16
			C118.599,45.057,116.225,44.503,116.225,41.8z"/>
		<path d="M238.034,25.788c-1.428,0-2.883,0.955-2.883,2.746c0,1.625,1.408,1.876,1.917,1.994c-0.271,1.16-1.357,2.081-3.29,2.081
			c-2.54,0-4.409-2.473-4.697-5.184l12.498-5.525c-0.746-4.689-2.676-8.083-7.156-8.083c-6.241,0-12.176,6-12.176,12.943
			c0,5.115,3.188,9.891,9.259,9.891c4.748,0,9.954-2.338,9.954-6.924C241.46,27.851,239.912,25.788,238.034,25.788z M235.406,21.712
			l-6.359,2.814c0.019-2.556,0.679-7.043,3.968-7.043C235.199,17.483,235.454,19.814,235.406,21.712z"/>
		<path d="M219.042,31.875c0-0.241,0.047-0.614,0.102-0.903l1.967-10.521c0.071-0.382,0.237-1.111,0.237-1.586
			c0-3.001-2.035-4.962-4.375-4.962c-3.239,0-5.358,2.233-8.055,4.741l0.813-4.399l-12.176,6.599
			c-1.045-4.405-4.393-7.042-7.784-7.042c-7.512,0-12.786,6.599-12.786,12.943c0,1.09,0.159,2.59,0.492,3.701
			c-1.365,1.146-2.741,2.063-4.138,2.063c-1.436,0-2.238-0.891-2.238-2.251c0-0.274,0.025-0.679,0.067-0.904l1.798-9.686h3.12
			c0.652,0,1.322,0.221,1.746,0.477l1.611-4.161h-5.766l1.137-6.071l-11.277,7.111l-0.475,2.644h3.204l-1.594,8.611
			c-0.156,0.843-0.424,2.336-0.424,3.273c0,3.172,1.102,5.883,5.003,5.883c3.78,0,6.851-1.978,9.7-3.973
			c1.56,2.012,3.673,3.121,6.783,3.121c6.839,0,11.87-5.85,12.192-12.227c0.695-0.529,1.476-0.921,2.052-0.921
			c0.679,0,1.034,0.41,1.034,1.109c0,0.324-0.043,0.599-0.067,0.733l-1.187,6.497c-0.246,1.346-0.865,1.996-2.307,1.996h-0.373
			l-0.492,2.694h11.871l0.491-2.694h-0.322c-1.009,0-2.068-0.512-2.068-1.859c0-0.221,0.038-0.479,0.085-0.733l0.983-5.405
			c0.425-2.336,2.475-4.536,4.527-4.536c1.304,0,1.781,0.729,1.781,1.484c0,0.285-0.215,1.444-0.271,1.756l-1.289,7.094
			c-0.268,1.472-0.716,2.2-2.425,2.2h-0.356l-0.475,2.694h11.904l0.526-2.694h-0.322C220.398,33.769,219.042,33.41,219.042,31.875z
			 M186.278,33.206c-1.831,0-2.662-1.211-2.662-3.804c0-5.559,2.12-11.902,5.172-11.902c1.808,0,2.459,1.62,2.459,3.905
			C191.247,27.834,188.771,33.206,186.278,33.206z"/>
		<path d="M155.721,17.142c-2.073-2.152-3.358-3.837-3.358-5.798c0-2.319,2.177-3.905,4.172-3.905c3.61,0,4.681,2.387,4.681,5.474
			c0,0.418-0.136,1.347-0.237,1.807h3.323l2.086-11.204h-3.205c-0.254,0.802-0.78,1.416-1.78,1.416
			c-0.758,0-1.368-0.229-2.154-0.511c-1.129-0.405-2.526-0.921-4.138-0.921c-5.308,0-10.021,3.513-10.021,9.618
			c0,4.126,1.788,6.953,4.019,9.242l4.087,4.195c1.284,1.318,1.934,2.506,1.934,4.621c0,2.763-2.12,4.792-5.394,4.792
			c-4.787,0-8.004-3.376-9.462-7.043l-3.171,1.023l3.73,10.709l2.374-0.784c0-0.823,0.44-1.364,1.238-1.364
			c1.102,0,2.592,0.665,4.375,1.364c1.325,0.52,2.917,0.955,4.833,0.955c5.851,0,10.073-4.707,10.073-10.863
			c0-3.188-1.017-5.567-3.324-7.963L155.721,17.142z"/>
		<path d="M87.701,13.937c2.985,0,5.749-2.37,5.749-5.133c0-1.541-1.255-2.49-2.951-2.49c-2.533,0-5.817,2.353-5.817,4.895
			C84.683,12.913,85.955,13.937,87.701,13.937z"/>
		<path d="M88.719,31.824c0-0.226,0.052-0.517,0.102-0.785l3.137-16.933l-12.956,7.179l1.424,2.831
			c0.38-0.215,1.216-0.683,1.797-0.683c0.679,0,1.052,0.35,1.052,1.074c0,0.202-0.038,0.559-0.085,0.819l-1.153,6.343
			c-0.31,1.705-1.145,2.098-2.526,2.098H79.29l-0.475,2.694h12.176l0.509-2.694h-0.322C89.65,33.769,88.719,33.196,88.719,31.824z"
			/>
		<path d="M75.814,31.875c0-0.282,0.051-0.579,0.102-0.853l5.037-27.284l-12.905,7.042l1.441,2.848
			c0.492-0.29,1.204-0.665,1.764-0.665c0.712,0,1.068,0.378,1.068,1.074c0,0.267-0.078,0.757-0.136,1.074l-3.036,16.575
			c-0.273,1.491-0.972,2.081-2.526,2.081h-0.187l-0.525,2.694h12.227l0.492-2.694h-0.407C76.748,33.769,75.814,33.152,75.814,31.875
			z"/>
	</g>
	<g display="inline">
		<path fill="#EE3124" d="M162.596,25.116l-0.017-0.029c-0.52-0.731-0.797-1.098-2.458-2.833l-4.816-5.03
			c-1.568-1.639-3.02-3.454-3.02-5.624c0-2.407,1.834-4.222,4.266-4.222c2.063,0,3.054,0.798,3.686,1.494
			c0.909,1,1.514,2.084,1.514,4.126c0,0.359-0.061,0.798-0.114,1.186c-0.013,0.095-0.025,0.187-0.036,0.274l-0.026,0.201h2.705
			l1.965-10.553h-2.774l-0.044,0.112c-0.326,0.82-0.973,1.235-1.922,1.235c-0.731,0-1.307-0.181-2.036-0.41
			c-0.114-0.036-0.231-0.073-0.354-0.111c-0.235-0.072-0.468-0.147-0.699-0.223c-1.016-0.33-2.065-0.672-3.219-0.672
			c-2.658,0-5.063,0.851-6.772,2.395c-1.82,1.645-2.782,3.962-2.782,6.702c0,2.51,0.321,3.868,0.555,4.86l0.018,0.064
			c0.53,1.374,1.513,2.8,2.921,4.238l4.325,4.417c1.516,1.548,2.221,3.058,2.221,4.753c0,2.92-2.386,5.039-5.674,5.039
			c-3.938,0-7.683-2.716-9.538-6.919l-0.064-0.146l-2.63,0.855l3.542,10.141l1.827-0.587l0.003-0.127
			c0.014-0.69,0.57-1.275,1.214-1.275c1.068,0,2.317,0.501,3.765,1.08c0.223,0.09,0.45,0.181,0.682,0.272
			c1.63,0.643,3.261,0.967,4.847,0.967c5.698,0,9.995-4.6,9.995-10.698c0-2.672-0.591-3.953-1.021-4.889L162.596,25.116z"/>
		<path fill="#EE3124" d="M91.759,14.827l-12.042,6.694l1.157,2.288l0.157-0.078c0.333-0.167,0.709-0.356,1.261-0.356
			c0.439,0,0.837,0.324,1.063,0.628c0.272,0.366,0.422,0.831,0.422,1.309c0,0.19-0.062,0.522-0.099,0.717l-1.085,5.798
			c-0.266,1.42-1.324,2.412-2.574,2.412h-0.267l-0.385,2.181h11.583l0.405-2.181H90.89c-1.478,0-2.229-0.755-2.231-2.244
			c-0.001-0.341,0.075-0.779,0.099-0.904L91.759,14.827z"/>
		<path fill="#EE3124" d="M75.719,32.097c0-0.266,0.066-0.713,0.099-0.889l4.9-26.676l-11.939,6.482l1.158,2.329l0.16-0.085
			c0.173-0.092,0.698-0.371,1.308-0.371c0.427,0,0.712,0.115,0.954,0.384c0.316,0.353,0.498,0.819,0.498,1.28
			c0,0.207-0.067,0.671-0.133,1.024l-3.001,16.063c-0.322,1.726-1.188,2.601-2.574,2.601h-0.249l-0.405,2.181H78.08l0.405-2.181
			h-0.484C77.315,34.238,75.719,34.029,75.719,32.097z"/>
		<path fill="#EE3124" d="M93.204,7.927l-0.03-0.045c-0.621-0.683-1.463-1.03-2.504-1.03c-1.183,0-2.534,0.49-3.615,1.311
			c-1.167,0.885-1.835,2.026-1.835,3.13c0,0.729,0.161,1.45,0.43,1.929l0.019,0.034l0.031,0.023c0.561,0.407,1.28,0.613,2.138,0.613
			c2.759,0,5.569-2.499,5.569-4.952C93.406,8.561,93.338,8.221,93.204,7.927z"/>
		<path fill="#EE3124" d="M240.2,26.896l-0.026-0.019c-0.336-0.193-1.057-0.518-2.105-0.518c-1.424,0-2.381,0.874-2.381,2.173
			c0,0.769,0.188,1.252,0.347,1.522l0.02,0.033l0.031,0.022c0.275,0.191,0.79,0.309,1.057,0.358l0.35,0.433
			c-0.233,1.287-1.856,2.177-3.204,2.177c-0.859,0-1.688-0.338-2.18-0.655c-0.741-0.465-2.697-1.688-3.091-5.042l12.484-5.509
			l-0.019-0.133c-0.391-2.896-1.62-5.092-2.304-5.796l-0.02-0.018c-1.387-1.057-2.908-1.571-4.651-1.571
			c-6.246,0-11.726,5.805-11.726,12.421c0,2.794,0.664,4.792,1.221,5.977l0.015,0.025c0.791,1.146,3.108,3.811,7.522,3.811
			c4.779,0,9.859-2.394,9.859-6.828C241.399,28.492,240.778,27.387,240.2,26.896z M232.998,17.422c0.439,0,0.944,0.144,1.352,0.385
			c0.715,0.422,1.203,1.032,1.377,1.715c0.141,0.553,0.256,1.658,0.266,2.518l-6.766,3.005l-0.257-0.281
			C229.059,18.139,231.814,17.422,232.998,17.422z"/>
		<path fill="#EE3124" d="M218.998,32.029c0-0.281,0.032-0.636,0.082-0.906l2.001-10.828c0.019-0.105,0.189-1.036,0.189-1.448
			c0-1.169-0.381-2.231-0.737-2.836l-0.028-0.037c-0.779-0.764-2.152-1.534-3.465-1.534c-2.741,0-4.512,1.436-7.837,4.707
			l-0.365-0.345l0.712-3.799l-11.722,6.301l-0.299-0.312c-0.707-2.858-1.972-4.209-2.389-4.655l-0.023-0.021
			c-1.261-0.941-2.824-1.945-5.447-1.945c-3.298,0-6.362,1.316-8.63,3.708c-2.236,2.357-3.468,5.501-3.468,8.851
			c0,1.452,0.167,2.924,0.43,3.808c-1.8,1.438-3.015,2.307-4.476,2.307c-0.611,0-1.071-0.143-1.752-0.896
			c-0.49-0.545-0.7-1.136-0.7-1.979c0-0.25,0.021-0.632,0.082-0.956l1.787-9.609h3.075c0.604,0,1.307,0.183,1.61,0.353l0.178,0.099
			l1.353-3.536h-5.085l-0.459-0.461l1.007-5.388l-10.599,6.685l-0.428,2.248h2.817l0.343,0.357l-1.713,9.255
			c-0.052,0.277-0.309,1.719-0.309,2.727c0,1.771,0.403,3.189,0.749,3.866l0.019,0.029c0.815,1.032,2.037,1.534,3.733,1.534
			c3.032,0,5.874-1.165,9.776-4.019c1.44,2.062,3.75,3.149,6.69,3.149c3.237,0,6.265-1.309,8.526-3.686
			c2.156-2.267,3.445-5.284,3.635-8.503c0.694-0.488,1.355-0.941,2.22-0.941c0.39,0,0.76,0.236,0.924,0.47l0.037,0.053
			c0.177,0.249,0.473,0.665,0.473,1.26c0,0.223-0.021,0.453-0.064,0.684l-1.119,5.968c-0.294,1.566-1.208,2.43-2.574,2.43h-0.23
			l-0.406,2.181h11.298l0.405-2.181h-0.399c-1.17,0-1.926-0.847-1.926-2.158c0-0.198,0.053-0.64,0.099-0.889l1.052-5.713
			c0.367-1.999,2.408-4.322,4.489-4.322c0.883,0,1.308,0.277,1.579,0.518c0.424,0.377,0.669,0.764,0.669,1.624
			c0,0.248-0.096,0.775-0.133,0.974l-1.39,7.605c-0.197,1.077-0.795,2.361-2.523,2.361h-0.302l-0.365,2.181h11.328l0.404-2.198
			h-0.433C220.24,34.221,218.998,33.76,218.998,32.029z M186.278,33.744c-0.65,0-1.164-0.227-1.617-0.711
			c-0.475-0.509-1.105-1.435-1.105-3.597c0-2.97,0.541-5.983,1.485-8.266c0.999-2.417,2.336-3.749,3.765-3.749
			c0.587,0,1.141,0.213,1.559,0.601c0.886,0.822,1.436,1.754,1.436,3.86C191.8,28.201,189.22,33.744,186.278,33.744z"/>
		<path fill="#EE3124" d="M136.796,34.824c-0.938-0.528-2.8-1.062-4.546-1.062c-1.875,0-3.002,0.152-3.996,0.287
			c-0.817,0.111-1.522,0.206-2.499,0.206c-1.098,0-1.648-0.206-2.264-0.849c-0.444-0.464-0.713-0.788-0.713-1.377
			c0-0.526,0.147-0.995,0.45-1.43c1.194,0.379,2.619,0.754,4.207,0.754c4.077,0,6.917-2.623,8.108-4.868
			c0.323-0.609,0.586-1.404,0.864-2.246c0.446-1.351,0.908-2.748,1.67-3.566c0.744-0.799,1.821-1.257,2.957-1.257
			c0.219,0,0.499,0.019,0.724,0.034c0.107,0.007,0.206,0.013,0.286,0.017l0.142,0.007l1.354-5.042l-0.238,0.008
			c-2.688,0.089-4.794,1.574-6.265,4.415l-0.222-0.223c-0.524-0.812-1.486-1.899-2.197-2.481l-0.026-0.019
			c-1.541-0.856-3.28-1.693-6.088-1.693c-2.327,0-4.855,0.973-6.762,2.604c-2.184,1.867-3.387,4.434-3.387,7.226
			c0,1.236,0.31,2.475,0.504,2.965l0.01,0.021c0.396,0.71,1.279,1.657,2.152,2.311l0.23,0.278c-1.221,0.332-4.034,1.413-4.582,4.394
			h-0.173c-1.999,0-2.418-1.229-2.418-2.261c0-0.221,0.065-0.69,0.099-0.871l2.052-11.05c0.068-0.367,0.139-0.901,0.139-1.158
			c0-1.149-0.455-2.24-0.768-2.703c-0.479-0.607-1.816-1.755-3.445-1.755c-2.738,0-4.438,1.359-7.868,4.688l-0.352-0.342
			l0.712-3.784L92.553,21.5l1.175,2.326l0.18-0.091c0.303-0.153,0.718-0.362,1.271-0.362c0.328,0,0.676,0.195,0.91,0.508
			c0.341,0.458,0.507,0.931,0.507,1.446c0,0.195-0.041,0.546-0.099,0.853l-1.068,5.645c-0.294,1.557-1.203,2.413-2.557,2.413h-0.249
			l-0.405,2.181h11.298l0.405-2.181h-0.518c-1.587,0-1.824-1.362-1.824-2.176c0-0.16,0.033-0.428,0.065-0.598l1.102-5.986
			c0.454-2.464,2.718-4.305,4.439-4.305c1.056,0,1.475,0.405,1.77,0.843c0.303,0.45,0.479,0.854,0.479,1.589
			c0,0.159-0.089,0.702-0.133,0.94l-1.306,7.162c-0.315,1.728-1.133,2.531-2.574,2.531h-0.285l-0.365,2.181H116.7
			c0.063,0.146,0.144,0.297,0.229,0.434c-3.54,1.719-6.223,3.314-6.223,6.465c0,1.148,0.544,1.967,0.955,2.481l0.025,0.025
			c1.709,1.421,5.375,2.854,9.711,2.854c4.752,0,8.843-1.117,11.833-3.23c2.905-2.056,4.505-4.938,4.505-8.116
			c0-1.407-0.565-2.159-0.902-2.481L136.796,34.824z M124.728,24.952c0-3.105,1.224-7.479,3.944-7.479
			c0.633,0,1.13,0.23,1.563,0.724c0.599,0.682,0.923,1.343,0.923,2.884c0,4.063-1.752,7.496-3.826,7.496
			c-0.78,0-1.29-0.469-1.859-1.225C125.006,26.732,124.728,25.835,124.728,24.952z M130.479,41.288c0,2.378-5.629,4.308-9.303,4.308
			c-2.196,0-3.341-0.452-4.374-1.726c-0.424-0.522-0.639-1.201-0.639-2.019c0-1.311,0.785-2.321,1.972-3.419
			c2.07,1.051,3.617,1.141,5.025,1.141c0.686,0,1.486-0.083,2.26-0.163c0.759-0.08,1.544-0.161,2.2-0.161
			c1.318,0,1.795,0.262,2.264,0.781C130.329,40.495,130.479,40.812,130.479,41.288z"/>
		<path fill="#EE3124" d="M37.531,33.022l0.014,0.025c1.52,2.305,3.891,3.473,7.049,3.473c6.643,0,12.047-5.68,12.047-12.66
			c0-2.762-0.737-5.106-2.191-6.965l-0.016-0.017c-1.715-1.687-3.636-2.506-5.872-2.506c-3.322,0-6.407,1.322-8.687,3.724
			c-2.244,2.364-3.479,5.513-3.479,8.868C36.396,29.91,37.014,31.885,37.531,33.022z M47.663,17.438c0.703,0,1.217,0.22,1.668,0.71
			c1.003,1.094,1.293,1.931,1.293,3.734c0,6.208-2.624,11.861-5.504,11.861c-0.865,0-1.675-0.552-2.167-1.476
			c-0.37-0.692-0.573-1.691-0.573-2.815C42.379,24.543,44.261,17.438,47.663,17.438z"/>
		<path fill="#EE3124" d="M62.933,32.029c0-0.324,0.051-0.803,0.099-1.06l4.866-26.437l-12.024,6.481l1.174,2.342l0.158-0.08
			c0.405-0.203,0.783-0.339,1.312-0.339c0.427,0,0.749,0.136,0.984,0.415c0.308,0.364,0.433,0.711,0.433,1.198
			c0,0.2-0.035,0.416-0.065,0.581l-2.968,16.251c-0.385,2.108-1.138,2.855-2.879,2.855h-0.301l-0.385,2.181h0.33
			c0.581,0,2.028,0.093,2.913,0.955c0.5,0.489,0.964,1.082,0.964,2.106c0,2.713-3.179,3.948-6.132,3.948
			c-6.057,0-11.684-3.346-15.849-9.425c-1.628-2.223-3.703-5.97-4.391-11.241c2.405-0.679,4.427-1.853,5.854-3.399
			c1.628-1.765,2.454-3.935,2.454-6.451c0-2.212-0.675-4.031-2.064-5.56l-0.017-0.017c-2.912-2.448-8.111-3.742-15.037-3.742
			c-2.411,0-5.284,0.244-7.882,0.669c-2.16,0.354-5.167,1.004-7.225,2.097C5.02,7.547,3.887,9.098,3.887,10.969
			c0,1.419,0.536,2.242,1.06,2.86l0.031,0.03c0.54,0.389,1.08,0.63,2.104,0.63c1.886,0,3.789-0.967,3.789-3.128
			c0-0.4-0.11-0.914-0.245-1.146l-0.016-0.027l-0.025-0.021c-0.177-0.146-0.359-0.254-0.584-0.347L9.5,8.98
			c1.678-1.348,3.562-1.932,6.252-1.943l0.333,0.386l-4.513,24.812c-0.503,2.767-2.26,3.333-4.744,3.333H6.24l-0.488,2.708h15.857
			l0.508-2.708h-0.484c-1.998,0-2.707-1.549-2.707-2.874c0-0.325,0.066-0.701,0.133-1.059l1.465-7.819h2.608l0.545,0.592
			c2.366,8.907,8.608,15.05,12.134,17.929c4.906,3.39,10.588,5.182,16.431,5.182c6.037,0,10.589-2.811,10.589-6.538
			c0-1.038-0.346-1.947-0.999-2.63l-0.028-0.023c-0.51-0.348-1.303-0.739-2.079-1.026l-0.717-0.883h6.252l0.405-2.181h-0.62
			C63.644,34.238,62.933,33.495,62.933,32.029z M32.19,12.862c0,4.055-3.481,8.161-10.134,8.161h-0.453l-0.476-0.479l2.5-13.49
			h0.396c3.322,0,5.467,0.717,6.75,2.255C31.733,10.462,32.19,11.288,32.19,12.862z"/>
	</g>
</g>
<g>
	<path d="M85.577,15.585c-0.183-0.197-0.373-0.396-0.574-0.603c-0.284,1.235-0.546,2.511-0.688,3.766
		c0.891-0.466,1.782-0.992,2.592-1.62C86.457,16.563,86.039,16.082,85.577,15.585l1.791-8.589c1.365-0.689,2.885-1.139,4.54-0.902
		c2.086,0.526,3.382,2.429,4.759,3.928c1.154,1.438,2.126,3.483,1.195,5.366c-0.304,0.527-0.709,0.83-1.134,1.215l0.769,0.891
		l-0.162,1.194l0.203-0.02l8.302-5.184c0.223-0.182,0.506-0.324,0.81-0.344c0.79,0.911,1.52,1.661,2.329,2.531
		c1.884-0.992,4.718-1.417,6.602-0.142c1.519,0.992,2.288,2.552,3.604,3.726l0.142-0.102c0.547-0.749,1.215-1.6,2.025-2.146
		l0.102-0.162c3.26-2.693,8.544-3.32,12.534-1.58c1.336,0.486,2.41,1.58,3.422,2.491c0.871-1.164,1.989-2.096,3.273-2.736
		l6.774,8.906c-0.182,0.583-0.364,1.166-0.53,1.748l-0.162,0.162c-1.013-0.223-2.045-0.223-3.037,0.061
		c-1.378,0.506-2.025,1.965-2.228,3.321l3.199,3.564c0.588,1.093,1.013,2.309,2.105,3.077c1.782,1.012,4.536,1.438,6.399,0.324
		c1.356-0.729,1.964-2.228,1.924-3.807c-0.101-1.884-1.356-3.342-2.431-4.759l-3.806-4.374l-0.932-0.972
		c-0.158,0.552-0.33,1.104-0.503,1.654l-6.774-8.906c1.283-0.64,2.73-0.99,4.259-0.99c0.285-1.802,0.648-3.564,1.561-5.083
		c1.316-2.349,3.807-4.232,6.521-4.778c2.045-0.519,4.029-0.208,5.935,0.289l-0.075,9.7c-0.497,0.311-0.899,0.769-1.122,1.311
		c-0.647,1.923,0.507,3.685,1.803,4.819l4.353,4.961l1.479,1.559c0.143-0.466,0.183-0.972,0.243-1.478
		c-0.871-1.114-1.803-2.025-2.753-3.139l0.343-2.288c-0.729-0.952-1.559-1.782-2.328-2.693c0.102-1.155,0.505-2.167,0.466-3.341
		c-0.304-0.082-0.628-0.142-0.951-0.142c-0.55-0.009-1.079,0.15-1.531,0.431l0.075-9.7c1,0.261,1.979,0.573,2.934,0.845
		c0.486,0.081,0.993-0.021,1.336-0.365c0.243-0.283,0.325-0.628,0.406-0.972l0.222-0.081l4.495,0.081l0.121,0.041l3.22,3.685
		l0.041,0.223l-1.031,5.649c0.08,0.082,0.201-0.02,0.282-0.061l5.487-3.503l0.119-0.081l3.506,4.07
		c-0.061,0.871-0.365,1.66-0.426,2.531c1.013,0.122,1.985-0.122,2.896-0.364l0.142,0.02l0.93,0.992
		c2.775-1.924,6.259-3.098,9.903-2.248c2.996,0.729,4.98,3.422,6.965,5.589l0.224-0.021l5.872-3.767
		c1.721-1.154,3.544-2.268,5.285-3.421l0.183,0.041c0.688,0.79,1.275,1.539,2.004,2.268c0.405-0.081,0.749-0.365,1.155-0.486
		c1.599-0.688,3.968-0.931,5.466,0.081c1.723,1.195,2.693,2.876,4.191,4.293c2.754-3.604,7.21-5.893,12.029-4.941
		c2.429,0.486,4.049,2.37,5.771,4.05c1.761,1.964,3.26,4.191,3.725,6.824c0.081,0.567,0.243,1.093,0.224,1.701
		c-1.073,0.547-2.188,1.013-3.28,1.519c-0.081,0.162,0.143,0.244,0.183,0.365c1.071,1.295,2.227,2.632,2.43,4.394
		c0.323,3.563-1.52,6.601-4.293,8.424c-1.782,0.952-3.666,1.803-5.893,1.741c-3.625-0.081-6.724-2.005-8.93-4.738l-0.041,0.041
		c-0.363,1.396-0.566,2.875-0.81,4.333l-0.142,0.141l-26.405-0.08l-1.781-1.984h-0.101c-2.249,1.984-5.569,2.977-8.708,2.064
		c-2.005-0.525-3.787-1.599-5.286-2.935l-0.201,0.061c-3.099,2.105-6.581,3.908-10.69,3.623c-2.006-0.262-3.586-1.68-4.801-3.259
		c-1.153,1.781-2.388,3.503-4.19,4.819c-0.202-0.02-0.182,0.223-0.366,0.263c-3.684,2.31-9.273,1.722-12.896-0.263
		c-0.548-0.203-1.095-0.446-1.682-0.526c-0.263,0.02-0.445,0.201-0.567,0.426l0.02,0.586l-3.988,1.459l-0.121-0.061
		c-0.749-0.851-1.479-1.661-2.248-2.491l-0.121,0.081c-3.625,5.751-9.72,9.82-16.868,9.86c-3.806,0.081-7.37-0.627-10.144-2.793
		c-1.944-1.438-3.523-3.483-4.921-5.468c-0.627-1.073-0.526-2.713-0.101-3.827l-27.134-0.041l-16.381-0.122l-0.061,0.021
		c-0.02,0.142,0.162,0.202,0.203,0.324c0.85,1.457,1.316,3.562,0.526,5.224c-1.418,3.098-4.738,4.698-7.999,5.123L58.7,53.497
		c-2.111,0.269-4.18,0.313-6.193,0.153L51.38,43.416c1.328-0.012,2.648-0.25,3.634-0.936c-0.425-0.547-0.911-1.094-1.417-1.64
		h-0.101c-2.288,1.579-5.608,1.902-8.403,1.113c1.073,0.567,2.228,0.952,3.442,1.195c0.865,0.154,1.857,0.273,2.846,0.267
		l1.126,10.234c-8.724-0.694-16.401-5.229-21.912-11.959c-1.984-2.531-4.192-5.042-5.69-7.958c-0.466-0.79-0.87-1.6-1.316-2.45
		l-0.061,0.061c-0.284,1.498-0.587,2.977-0.79,4.516l3.301,3.746c-0.304,1.681-0.567,3.382-0.892,5.041l-17.353-0.04H6.254
		l-3.422-3.868l0.972-5.122l0.082-0.323c1.701,0.08,3.766,0.425,4.92-0.952c0.283-0.425,0.364-0.911,0.466-1.418l2.227-12.716
		v-0.041c-0.79,0.264-1.58,0.709-2.531,0.567C5.627,20.43,3.784,17.048,1.8,14.78c-0.972-1.499-1.073-3.888-0.223-5.488
		c1.6-3.26,5.285-4.435,8.626-5.123c5.558-1.39,11.776-1.561,17.688-0.916l-0.355,9.322c-0.207,0.002-0.417,0.015-0.627,0.038
		l-0.223,1.094l-0.992,5.588L25.653,19.7c0.283-0.101,0.608-0.141,0.851-0.344c1.762-1.073,3.3-2.733,3.645-4.839
		c0.02-0.506,0.142-1.134-0.102-1.58c-0.8-0.212-1.641-0.373-2.511-0.362l0.355-9.322c0.464,0.05,0.927,0.106,1.387,0.167
		c3.159,0.446,6.115,1.742,8.383,3.969c1.68,1.62,3.078,3.483,4.333,5.426c0.385,0.75,0.648,1.52,0.851,2.35
		c0.688-0.102,1.275-0.526,1.964-0.688c1.235-0.344,2.795-0.608,4.211-0.456c0.494,0.053,0.507,0.065,1.094,0.142
		c3.26,0.421,5.426,3.271,7.471,5.559l0.223,0.202c0.203-0.668,0.284-1.417,0.425-2.126l-1.519-1.721
		c-0.708-1.296-1.619-2.612-2.369-3.847v-0.122l1.883-1.255L69.31,2.61l0.162,0.041l3.483,3.868l0.073,0.106
		C72.968,7.253,72.76,8.042,72.7,8.69c0.531-0.248,1.045-0.613,1.551-0.896l7.978-5.123l0.162,0.081l3.847,4.333
		c0,0.183,0,0.365,0,0.547c0.363-0.225,0.741-0.44,1.13-0.636L85.577,15.585z M236.08,32.667l-0.567-0.405
		c-0.506,0.264-1.071,0.365-1.538,0.71c0.081,0.101,0.202,0.183,0.282,0.263C234.946,33.336,235.656,33.174,236.08,32.667z
		 M124.63,45.336l-2.491-0.384c-0.162,0.243-0.344,0.547-0.384,0.83C122.727,45.722,123.759,45.681,124.63,45.336z"/>
</g>
<g>
	<path fill="#ED1C24" d="M234.703,26.97l-5.021,2.41c-0.101,0.486,0.082,0.972,0.224,1.417c0.547,1.782,1.843,3.301,3.523,4.069
		c1.336,0.446,2.896,0.185,3.929-0.668c0.485-0.404,0.972-0.951,1.233-1.538c-0.201-0.426-0.525-0.81-1.031-0.831
		c-0.526-0.303-0.79-0.931-0.669-1.579c0.102-0.81,0.71-1.579,1.438-1.862c0.729-0.304,1.782-0.304,2.431,0.183
		c0.91,0.688,0.991,2.045,0.769,3.179c-0.628,3.22-3.463,5.527-6.54,6.276c-3.24,0.688-6.886,0.143-8.788-2.552
		c-2.288-2.713-2.937-6.924-1.884-10.508c0.932-3.28,2.997-6.358,6.156-7.876c1.964-0.972,4.516-1.438,6.762-0.79
		c3.099,0.729,4.639,3.989,5.003,6.965v0.122L234.703,26.97z M236.142,21.199c-0.385-1.073-1.235-2.167-2.47-2.288
		c-1.215-0.223-2.287,0.407-2.975,1.258c-1.053,1.296-1.404,2.812-1.465,4.574c-0.04,0.526-0.076,1.255,0.085,1.762
		c0.142,0.202,0.284,0.425,0.527,0.466c2.228-1.074,4.495-2.066,6.722-3.159C236.445,22.94,236.405,22.009,236.142,21.199z"/>
	<path fill="#ED1C24" d="M221.769,38.229l-10.736,0.021c0.041-0.648,0.183-1.316,0.324-1.944c1.113-0.143,2.309-0.669,2.714-1.802
		l0.242-0.992l1.356-8.565c0-1.215-0.869-2.126-1.842-2.693c-1.032-0.446-2.268-0.122-3.077,0.546
		c-1.114,0.892-1.863,2.188-2.106,3.625l-1.255,7.472c-0.02,0.991,0.608,1.822,1.458,2.227l0.404,0.121
		c0,0.689-0.195,1.422-0.275,2.09l-0.393-0.002h-10.632l0.306-1.844c0.303-0.102,0.647-0.102,0.971-0.183
		c0.953-0.203,1.944-0.647,2.39-1.56l0.283-1.012l1.054-6.318c0.061-0.587,0.161-1.316-0.243-1.762
		c-0.526-0.506-1.256-0.972-2.045-0.688c-0.71,0.303-1.398,0.729-1.944,1.296c-0.587,4.272-2.43,8.504-6.015,10.975
		c-2.024,1.356-5.062,1.762-7.451,0.891c-1.862-0.648-3.381-1.904-4.759-3.382l-0.201,0.041c-2.755,2.228-5.975,4.414-9.923,4.395
		c-1.599-0.061-3.301-0.993-3.808-2.531c-0.586-1.783-0.424-4.091-0.04-5.913l1.621-8.93c-0.265-0.263-0.427-0.789-0.893-0.789
		l-0.021-0.041l-2.227-0.041l0.303-1.68l8.506-5.326l1.013-0.567c-0.182,1.458-0.486,2.895-0.729,4.333
		c0.222,0.304,0.444,0.587,0.708,0.81l5.629,0.02c-0.324,1.013-0.688,1.985-1.113,2.957c-0.405-0.061-0.789-0.243-1.235-0.284
		c-1.478-0.041-3.018-0.081-4.495-0.061l-0.121,0.304l-1.114,6.844l-0.445,2.592c-0.044,0.23-0.04,0.405-0.04,0.405
		c-0.184,1.458,0.505,2.754,1.579,3.563c1.356,0.668,2.794-0.121,3.969-0.688c0.729-0.445,1.457-0.85,2.085-1.397
		c-0.444-2.247-0.547-5.021,0.183-7.147c1.478-4.819,5.73-8.484,10.793-9.132c2.308-0.081,4.475,0.506,6.135,1.904
		c1.215,1.174,1.823,2.855,2.248,4.495l0.567,0.587c1.943-1.255,3.928-2.511,5.872-3.726l4.597-3.018
		c0.142-0.04,0.304-0.202,0.404-0.182c-0.121,1.154-0.404,2.248-0.547,3.402c0.143,0.284,0.386,0.567,0.647,0.77l0.224-0.102
		c1.803-1.924,3.97-3.665,6.602-4.252c1.498-0.263,3.017,0.122,3.929,1.256c1.112,1.66,0.709,4.07,0.343,5.953l-1.031,5.609
		l-0.812,4.374c-0.039,1.175,0.668,2.152,1.697,2.595l0.713,0.18C221.998,36.993,221.884,37.551,221.769,38.229z M193.214,26.95
		c0.101-1.62,0.467-3.199,0.243-4.88c-0.082-1.316-0.992-2.41-2.146-2.957c-0.83-0.364-1.904-0.304-2.592,0.304
		c-1.843,1.417-2.227,3.827-2.835,5.953c-0.446,2.431-1.054,5.022-0.567,7.614c0.223,1.295,1.055,2.651,2.369,2.977
		c0.952,0.282,1.904-0.061,2.592-0.628c1.741-1.66,2.087-4.091,2.633-6.339L193.214,26.95z"/>
	<path fill="#ED1C24" d="M165.29,15.813l-0.081,0.061l-2.085-0.081c0.222-1.702,0.222-3.625-0.973-4.84
		c-1.396-1.661-3.563-2.814-5.851-2.106c-1.479,0.445-2.774,1.6-3.099,3.159c-0.527,2.369,0.91,4.313,2.186,5.933
		c2.795,3.503,5.913,6.601,8.304,10.266c1.376,2.329,1.053,5.832-0.142,8.16c-1.114,2.855-3.929,5.307-6.986,5.872
		c-3.787,0.871-7.027-0.891-10.267-1.984c-0.526-0.141-1.275-0.323-1.781-0.02c-0.486,0.283-0.893,0.749-0.993,1.356
		c-0.446,0.243-0.931,0.404-1.458,0.506l-0.87-2.45l-2.592-7.512l0.021-0.041c0.769-0.264,1.538-0.526,2.287-0.708
		c1.762,3.867,5.265,7.007,9.74,7.168c2.391,0.121,4.657-1.054,5.69-3.079c0.77-1.437,0.951-3.623,0.081-5.102
		c-1.539-2.957-4.232-5.326-6.42-7.897c-2.064-2.389-3.462-5.264-3.118-8.707c0.243-2.227,1.114-4.415,2.917-5.812
		c2.004-1.64,4.677-2.673,7.491-2.146c1.479,0.243,2.855,0.79,4.294,1.154c1.133,0.182,2.348,0.04,2.995-0.892l0.285-0.405
		l2.064,0.041l0.061,0.061l-1.437,8.443L165.29,15.813z"/>
	<path fill="#ED1C24" d="M142.935,20.693c-1.558-0.122-3.097,0.142-4.149,1.215c-1.58,1.499-1.56,3.888-2.612,5.69
		c-1.418,2.754-4.07,4.678-7.229,4.961c-1.924,0.162-3.726-0.263-5.386-0.87c-0.304,0.223-0.345,0.627-0.426,0.972
		c-0.324,0.992,0.041,2.045,0.729,2.713c0.932,1.155,2.713,0.811,4.131,0.77c2.955-0.263,6.438-0.709,9.132,0.405
		c0.79,0.588,1.195,1.559,0.951,2.572c-0.688,2.794-2.733,4.979-4.899,6.843c-4.678,4.133-12.514,5.489-18.447,2.774
		c-1.418-0.647-3.078-1.539-3.362-3.239c-0.284-1.924,1.134-3.463,2.43-4.536c1.114-0.85,2.43-1.499,3.666-2.126
		c0.101-0.108-0.241-0.477-0.332-0.62c-0.108-0.171-0.135-0.23-0.337-0.291l-11.299-0.021c0.02-0.526,0.122-1.073,0.243-1.579
		c1.114-0.243,2.288-0.709,2.814-1.762l0.162-0.628l1.519-8.869c0.081-0.628,0.04-1.316-0.344-1.781
		c-0.729-0.871-1.883-1.397-3.078-1.033c-1.822,0.648-3.321,2.288-3.665,4.171l-1.154,7.026c0,1.155,0.668,2.187,1.721,2.592
		c0,0.608-0.162,1.235-0.283,1.823H93.285c0.041-0.486,0.141-1.053,0.243-1.56c1.154-0.304,2.349-0.851,2.653-2.106l1.376-7.876
		c-0.122-0.81-0.79-1.458-1.519-1.681l-0.912-0.02c-0.344-0.527-0.668-1.094-0.972-1.661l0.223-0.202l10.307-6.297
		c-0.121,1.701-0.546,3.3-0.769,4.961c0.202,0.202,0.344,0.445,0.607,0.486c1.337-1.559,2.855-2.936,4.516-4.151
		c1.64-1.215,4.395-1.701,6.257-0.546c1.114,0.871,1.291,2.105,1.149,3.523l-0.068,0.4l-1.871,12.54
		c-0.018,0.929,0.871,1.903,1.802,2.247c0.486,0.202,1.033,0.323,1.58,0.264c0.182-1.945,1.458-3.827,3.361-4.354
		c0.283-0.141,0.587-0.182,0.851-0.363c-0.284-0.405-0.708-0.729-1.033-1.134c-1.863-2.046-2.085-5.63-1.053-8.202
		c0.952-2.349,2.896-4.495,5.365-5.305c3.706-1.316,8.525-0.749,11.158,2.066c0.486,0.506,1.032,1.032,1.438,1.62
		c0.202-0.021,0.223-0.263,0.324-0.405c1.032-2.227,3.381-3.827,5.852-3.908C143.827,17.737,143.361,19.194,142.935,20.693z
		 M131.799,26.1c0.485-1.823,1.053-4.273,0.102-6.034c-0.648-1.074-1.701-1.823-3.018-1.64c-1.296,0.263-2.024,1.437-2.511,2.551
		c-0.77,2.43-1.822,5.73-0.284,8.12c0.567,0.79,1.397,1.377,2.471,1.195c1.418-0.183,2.268-1.681,2.794-2.815L131.799,26.1z
		 M131.394,43.169c0.223-0.851-0.263-1.56-0.811-2.064c-1.255-1.296-3.36-0.567-4.98-0.467c-1.458,0.101-2.876,0.041-4.211-0.262
		c-1.053-0.225-2.005-0.688-2.998-1.095c-1.255,1.478-2.632,3.301-1.924,5.468c0.486,1.053,1.397,2.268,2.572,2.571
		c2.471,0.749,5.305,0.202,7.614-0.568l0.021,0.021c1.438-0.586,2.875-1.193,3.948-2.369
		C130.947,44.039,131.191,43.615,131.394,43.169z"/>
	<path fill="#ED1C24" d="M91.301,13.221c-1.235,0.972-3.159,1.539-4.738,0.81c-0.709-0.709-0.81-1.984-0.446-2.916
		c0.79-1.822,2.714-2.814,4.637-3.038c0.992-0.02,2.065,0.304,2.531,1.215C93.792,10.993,92.354,12.269,91.301,13.221z"/>
	<path fill="#ED1C24" d="M91.584,17.453l-0.871,5.245l-1.519,8.768c-0.142,1.133-0.709,2.629,0.101,3.643
		c0.425,0.77,1.296,1.114,2.167,1.196c0,0.507-0.101,1.032-0.223,1.52l-11.501-0.041c0.041-0.526,0.142-1.013,0.243-1.52
		c0.608-0.242,1.357-0.283,1.944-0.667c0.486-0.345,0.972-0.811,1.215-1.358c0.486-2.469,0.853-4.854,1.278-7.344
		c0-0.811-0.57-1.564-1.258-1.889c-0.284-0.081-0.608,0-0.892-0.081c-0.445-0.628-0.769-1.256-1.093-1.985l10.408-6.297l0.162-0.081
		C91.686,16.866,91.683,16.947,91.584,17.453z"/>
	<path fill="#ED1C24" d="M76.134,32.681c-0.223,1.134,0.081,2.308,1.032,2.936c0.223,0.163,0.506,0.264,0.77,0.345
		c-0.02,0.607-0.142,1.235-0.283,1.822L66.88,37.682l-0.061-0.04c0.041-0.588,0.142-1.134,0.223-1.722l0.162-0.101
		c1.053-0.184,2.126-0.547,2.713-1.479l0.223-0.668l1.215-6.925l1.438-8.384c0.101-0.891,0.587-1.903,0.061-2.753
		c-0.304-0.466-0.749-0.932-1.316-1.013c-0.344-0.061-0.668,0.041-1.012,0.02c-0.344-0.546-0.668-1.133-0.972-1.68l0.182-0.142
		l7.836-5.001l3.078-1.944l-0.465,3.098L76.134,32.681z"/>
	<path fill="#ED1C24" d="M52.828,33.511c-1.479,1.599-3.159,3.219-5.346,3.786c-1.742,0.486-3.868,0.81-5.63,0.101
		c-2.024-0.688-3.908-2.268-4.677-4.251c-0.972-2.146-1.276-4.86-0.81-7.351c0.344-1.924,1.154-3.746,2.41-5.225
		c1.701-1.883,3.847-3.584,6.317-4.374c3.24-1.073,7.107-0.425,9.396,2.045c2.289,2.835,2.673,7.775,1.033,11.137
		C54.792,30.878,53.88,32.255,52.828,33.511z M50.175,20.288c-0.425-0.85-1.235-1.741-2.268-1.862
		c-1.053-0.244-1.943,0.324-2.632,0.952c-1.943,2.511-2.571,5.669-3.017,8.869c-0.122,1.681-0.486,3.705,0.203,5.244
		c0.627,0.911,1.458,1.983,2.774,1.822c3.038-0.262,3.666-3.665,4.374-6.034C50.114,26.423,51.208,23.264,50.175,20.288z"/>
	<path fill="#ED1C24" d="M27.738,5.088c0.824,0.085,1.643,0.185,2.451,0.296c1.478,0.324,3.058,0.466,4.333,1.276
		c2.227,1.458,4.07,3.767,4.292,6.541c0.385,4.232-2.004,7.958-5.609,9.679c-0.87,0.466-1.822,0.75-2.795,1.012
		c0.041,1.195,0.405,2.268,0.608,3.402c1.053,4.11,3.22,7.918,6.196,10.935c3.139,3.301,7.046,6.176,11.785,6.925
		c3.18,0.242,6.885,0.264,8.626-2.552c0.526-0.95,0.567-2.368-0.102-3.26c-0.789-1.235-2.187-1.7-3.625-1.781
		c0.061-0.547,0.102-1.175,0.264-1.681l0.061-0.061c1.094-0.062,2.167-0.507,2.673-1.479c0.263-0.628,0.323-1.316,0.445-2.005
		l1.195-6.702l1.762-9.619c0.061-0.648-0.324-1.296-0.891-1.539c-0.426-0.223-1.013-0.304-1.499-0.162
		c-0.385-0.486-0.729-1.012-0.993-1.6c0.183-0.304,0.547-0.364,0.811-0.567l9.821-6.257l-0.061,0.81l-4.556,26.101
		c-0.041,0.992,0.182,2.004,1.013,2.571c0.283,0.224,0.647,0.406,1.033,0.467l0.04,0.061l-0.263,1.721l-6.054,0.04
		c-0.061,0.062-0.021,0.143,0.02,0.203c0.445,0.404,0.729,0.85,1.134,1.275c1.235,0.345,2.572,1.094,2.896,2.45
		c0.385,1.519-0.162,3.017-1.134,4.051c-3.523,3.583-9.334,3.663-14.174,2.854c-4.05-0.829-8.019-2.146-11.299-4.616
		c-4.476-3.14-7.999-7.533-10.489-12.393c-0.79-1.721-1.397-3.522-2.025-5.325l-1.154-1.256c-0.891-0.121-1.802-0.182-2.713-0.202
		c-0.081,0.02-0.183,0.102-0.183,0.202c-0.465,3.199-1.113,6.318-1.619,9.497c0.122,1.418,1.194,2.511,2.49,2.977
		c0.162,0.08,0.385,0.04,0.567,0.08c-0.041,0.75-0.203,1.499-0.324,2.229h-1.073H4.918l-0.041-0.103
		c0.142-0.77,0.182-1.579,0.425-2.268c1.822-0.081,3.827-0.223,4.9-1.844c0.304-0.546,0.486-1.153,0.628-1.781l2.167-12.028
		l2.49-13.324c-0.245-0.228-0.476-0.81-0.961-0.668c-2.349,0.02-4.384,0.79-6.206,2.025c-0.324,0.344,0.284,0.405,0.384,0.647
		c0.628,0.608,1.114,1.438,0.952,2.41c-0.182,0.952-0.871,1.862-1.742,2.268c-1.154,0.526-2.957,0.526-3.888-0.384
		c-1.073-1.094-1.255-3.018-0.648-4.394c1.134-2.532,4.009-3.382,6.5-4.111c3.038-0.689,6.156-1.215,9.416-1.336
		C22.119,4.672,24.968,4.8,27.738,5.088 M27.977,8.418c-1.563-0.603-3.392-0.725-5.179-0.725l-0.088,0.005l-1.308,7.305
		l-1.154,6.601l-0.025,0.17c0.324,0.311,0.41,0.539,0.693,0.66c3.159,0,6.277-0.789,8.464-2.957
		c1.114-1.093,1.823-2.248,2.268-3.645c0.627-1.721,0.304-3.848-0.81-5.224C30.098,9.539,29.106,8.853,27.977,8.418"/>
</g>
<path fill="#FFFFFF" d="M49.062,28.631c-0.325,1.336-0.77,2.632-1.215,3.907c-0.486,1.033-1.377,1.904-2.551,2.066
	c-0.993,0.08-1.964-0.224-2.47-1.033c-0.891-1.579-0.365-3.705-0.284-5.508c0.323-2.693,0.992-5.244,2.227-7.594
	c0.607-0.911,1.357-1.842,2.612-1.822c0.932-0.061,1.64,0.426,2.065,1.154c0.972,1.904,0.405,4.455,0.122,6.48L49.062,28.631z
	 M48.596,27.092c0.344-2.228,1.073-4.82,0.182-7.047c-0.284-0.466-0.81-0.709-1.377-0.729c-0.971,0.02-1.599,0.81-2.004,1.559
	c-1.094,2.126-1.539,4.516-1.944,6.926l-0.036,0.28c-0.117,0.749-0.167,0.876-0.228,1.865c-0.068,1.112-0.203,2.35,0.425,3.24
	c0.223,0.344,0.608,0.486,0.992,0.547c0.892,0.142,1.701-0.345,2.147-0.992c0.668-1.175,1.073-2.45,1.417-3.747L48.596,27.092z"/>
<path fill="#FFFFFF" d="M31.227,13.484c0.043,2.666-1.574,4.963-3.609,6.378c-0.628,0.425-1.296,0.79-2.025,1.053
	c-1.559,0.526-3.306,0.681-5.067,0.701l0.086-0.762l1.822-10.104l0.526-2.734c1.6-0.04,3.159,0.122,4.597,0.526
	c1.742,0.547,3.078,2.025,3.543,3.767C31.179,12.708,31.22,13.1,31.227,13.484z M26.336,19.79c0.042-0.022,0.085-0.045,0.127-0.068
	c0.789-0.446,1.478-0.952,2.126-1.64c1.539-1.6,2.491-3.949,1.62-6.196c-0.871-2.471-3.645-2.998-6.075-3.139
	c-0.202-0.02-0.486-0.041-0.648,0.081l-0.304,1.6c-0.324,1.58-0.546,3.159-0.83,4.738l-0.912,5.062l-0.04,0.526l0.789,0.021
	C23.679,20.696,25.091,20.447,26.336,19.79"/>
<path fill="#FFFFFF" d="M130.158,28.104c-0.466,0.77-1.194,1.479-2.166,1.438c-0.709-0.041-1.337-0.426-1.803-0.911
	c-0.992-1.458-0.485-3.524-0.263-5.184c0.385-1.58,0.83-3.281,2.167-4.333c0.526-0.284,1.153-0.466,1.802-0.324
	c0.729,0.202,1.438,0.79,1.579,1.6c0.344,1.478,0.081,3.098-0.202,4.536C130.947,25.998,130.746,27.132,130.158,28.104z
	 M130.665,23.812c0.101-1.175,0.425-2.572-0.143-3.646c-0.364-0.526-1.012-0.769-1.619-0.607c-1.154,0.567-1.458,1.741-1.863,2.814
	c-0.385,1.681-0.871,3.503-0.506,5.326c0.223,0.445,0.566,0.83,1.053,0.951c0.709,0.203,1.356-0.142,1.722-0.648
	C130.017,26.707,130.381,25.269,130.665,23.812z"/>
<path fill="#FFFFFF" d="M129.551,44.263c-1.984,1.499-4.435,2.349-7.006,2.633c-1.782,0.162-3.483-0.122-4.86-0.993
	c-0.77-0.567-1.215-1.518-1.154-2.571c0.182-1.438,0.991-2.754,1.984-3.705c1.802,0.992,3.868,1.438,6.115,1.356
	c1.52-0.041,2.957-0.445,4.517-0.304c0.546,0.101,1.113,0.385,1.396,0.911c0.162,0.344,0.203,0.811,0.122,1.215
	C130.401,43.351,130.017,43.817,129.551,44.263z M129.854,42.157c-0.04-0.203-0.202-0.284-0.324-0.425
	c-1.032-0.608-2.308-0.021-3.442-0.041c-1.822,0.061-3.726,0.102-5.366-0.365c-0.749-0.182-1.417-0.485-2.125-0.729
	c-0.871,0.992-1.661,2.431-1.054,3.827c0.527,1.073,1.823,1.478,2.997,1.66c2.855,0.243,5.366-0.567,7.634-1.822
	C128.802,43.696,130.037,43.271,129.854,42.157z"/>
<path fill="#FFFFFF" d="M190.987,32.741c-0.386,1.012-0.993,2.125-2.107,2.552c-0.83,0.181-1.862,0.06-2.47-0.588
	c-1.154-1.175-0.992-3.058-0.932-4.738c0.264-2.916,0.83-5.71,1.883-8.302c0.548-1.093,1.316-2.268,2.633-2.491
	c0.85-0.081,1.66,0.203,2.146,0.892c0.872,1.599,0.547,3.786,0.406,5.629C192.262,28.145,191.776,30.514,190.987,32.741z
	 M190.702,19.964c-0.829-0.264-1.558,0.284-2.064,0.871c-1.235,2.085-1.681,4.556-2.085,7.006c-0.121,1.822-0.628,3.888,0.04,5.608
	c0.263,0.547,0.789,0.974,1.377,1.095c0.628,0.061,1.114-0.243,1.518-0.709c0.913-1.357,1.398-2.977,1.702-4.637
	c0.323-1.742,0.587-3.504,0.688-5.326C191.979,22.454,192.182,20.551,190.702,19.964z"/>
<path fill="#FFFFFF" d="M229.703,26.2l-0.143,0.041c-0.142-2.551,0.143-5.285,2.248-6.682c0.668-0.546,1.782-0.466,2.531-0.122
	c1.235,0.708,1.337,2.288,1.438,3.665l-0.04,0.284L229.703,26.2z M234.846,23.021c0.021-0.992,0.061-2.004-0.607-2.693
	c-0.566-0.445-1.478-0.405-2.086-0.101c-1.559,1.013-1.821,2.977-1.801,4.839l0.08,0.021L234.846,23.021z"/>
<path fill="#FFFFFF" d="M89.235,32.7c-0.142,0.669-0.223,1.458,0.243,2.005c0.567,0.668,1.417,0.973,2.349,0.992l0.041,0.102
	l-0.405,2.308l-12.494-0.04l-0.061-0.081l0.405-2.43c1.235-0.021,2.552-0.404,3.058-1.58l0.203-0.647l1.134-6.642
	c0-0.446-0.081-0.911-0.425-1.195c-0.425-0.404-1.134-0.243-1.62-0.061c-0.526-0.871-0.952-1.782-1.438-2.653l0.04-0.162
	l10.975-6.702l0.912-0.547l0.085,0.041l-0.085,0.688L89.235,32.7z M80.427,8.928l-1.599,9.416c-0.304,1.802-0.608,3.625-0.953,5.447
	l-1.134,6.804c-0.101,1.073-0.465,2.105-0.364,3.24c0.122,0.77,0.79,1.316,1.519,1.518c0.141,0.061,0.425,0.021,0.425,0.244
	l-0.385,2.429l-0.304,0.061l-11.542-0.101l-0.061-0.101l0.405-2.633c1.134-0.143,2.49-0.386,2.916-1.579l0.243-0.973l2.754-15.895
	c0-0.628,0.102-1.397-0.506-1.722c-0.507-0.344-1.194-0.202-1.681,0.041l-0.182-0.02l-1.356-2.329l0.041-0.162l12.352-7.877
	l0.101,0.041C81.034,6.235,80.609,7.531,80.427,8.928z M155.025,4.21c-1.904,0.041-3.586,0.648-5.104,1.6
	c-2.896,1.721-4.354,5.001-4.597,8.403l-0.081,0.122c-1.65-0.021-3.17,0.321-4.498,1.006c-1.279,0.661-2.384,1.64-3.258,2.922
	h-0.061c-2.652-3.301-7.249-4.333-11.461-3.26c-4.029,0.912-7.513,4.495-8.1,8.667c-0.466,2.571,0.466,5.022,2.045,6.803
	c0.041,0.062,0.102,0.183,0.021,0.264c-1.235,0.465-2.37,1.519-2.957,2.693c-0.283,0.263-0.121,1.094-0.708,0.83
	c-0.486-0.243-0.546-0.77-0.546-1.256l1.762-11.906c0.102-1.053,0.102-2.207-0.284-3.118c-0.688-1.66-2.268-2.814-4.11-2.936
	c-2.977-0.081-5.488,1.64-7.371,3.604c-0.041,0.061-0.162,0.142-0.244,0.061c0.264-1.681,0.547-3.361,0.831-5.042h-0.101
	l-7.067,4.354l-6.378,3.989l-0.81,0.465l-0.041-0.041l0.871-5.265c0.203-1.174,0.445-2.389,0.567-3.544
	c-0.607,0.264-1.194,0.689-1.782,0.992c-0.04,0.041-0.162,0.061-0.182,0c1.154-0.891,2.288-1.923,2.896-3.219
	c0.546-0.992,0.445-2.511-0.162-3.422c-0.81-1.235-2.208-1.782-3.746-1.62c-2.774,0.405-5.467,2.045-6.216,4.86
	c-0.304,0.952-0.021,1.984,0.466,2.754c0.972,1.316,2.652,1.681,4.312,1.479c0.668-0.082,1.236-0.405,1.904-0.446l-0.02,0.041
	c-1.215,0.85-2.511,1.6-3.767,2.41l-1.313,0.828l-3.506,2.209l-3.179,1.944l-0.061-0.061c-0.041-0.02-0.041-0.102,0-0.122
	l3.078-18.447l0.081-0.688l-0.122,0.061L67.832,12.29c-0.102,0.061-0.223,0.122-0.324,0.061c0.466-3.038,1.053-6.055,1.519-9.092
	L68.662,3.44l-8.748,5.488l-4.192,2.693l-0.911,0.668c0.708,1.195,1.499,2.47,2.288,3.645c0.466-0.183,0.891-0.811,1.478-0.507
	c0.223,0.102,0.263,0.345,0.223,0.567l-1.174,6.641c-0.041,0-0.081,0-0.102-0.04c-0.587-3.685-3.159-6.965-6.823-7.979
	c-4.272-0.931-8.363,0.628-11.34,3.321H39.22c0.142-0.607,0.425-1.174,0.547-1.822c0.648-2.491,0-5.124-1.336-7.087
	c-2.268-3.503-6.338-5.022-10.408-5.468c-5.204-0.607-10.813-0.445-15.916,0.506C8.259,4.858,3.784,5.628,1.84,9.536
	c-0.79,1.498-0.688,3.685,0.284,5.082c1.214,1.702,3.382,2.309,5.528,1.944c1.479-0.526,2.855-1.519,3.199-3.159
	c0.304-1.276-0.142-2.531-0.932-3.402c0.83-0.546,1.762-0.87,2.734-1.093c0.405-0.041,0.79-0.203,1.174-0.102l-0.081,0.77
	l-2.309,12.898L9.576,33.126l-0.284,1.072c-0.992,1.763-3.341,1.438-5.204,1.459c-0.324,1.6-0.627,3.22-0.83,4.859l17.293,0.041
	l1.073-0.041c0.324-1.479,0.526-2.998,0.79-4.495c-0.79-0.121-1.62-0.102-2.349-0.405c-0.79-0.425-0.993-1.378-0.912-2.268
	l1.276-7.411l0.162-0.102l1.275,0.082c1.357,4.455,3.503,8.566,6.338,12.27c3.22,3.867,7.208,7.087,11.745,9.112
	c3.493,1.458,7.339,2.563,11.341,2.683c1.334,0.04,2.686-0.03,4.048-0.232c3.179-0.607,6.844-1.863,8.14-5.104
	c0.668-1.417,0.526-3.36-0.263-4.637c-0.284-0.505-0.708-0.81-1.134-1.174c0.021-0.021,0.041-0.041,0.061-0.021l17.738,0.102
	l33.896,0.062c0.102,0.02,0.284,0,0.284,0.142c-1.863,1.113-3.625,2.489-4.293,4.616c-0.486,1.559,0.263,3.138,1.316,4.13
	c1.884,1.56,4.212,2.431,6.602,2.958c5.771,1.031,11.664-0.285,15.896-3.767c2.551-2.208,5.082-4.697,5.629-8.222l0.061-0.062
	c0.607,1.539,1.134,3.099,1.66,4.657l0.081,0.122c1.276-0.364,2.471-0.932,3.686-1.377c-0.061-0.283,0.061-0.567,0.222-0.811
	c0.467-0.363,1.074-0.04,1.581,0.041c2.794,1.094,5.567,2.35,8.868,2.106c4.213-0.224,8.121-3.443,9.416-7.33
	c0.062-0.143,0.102-0.385,0.243-0.404c0.364,1.821,1.681,3.36,3.401,4.049c4.556,1.397,8.585-1.194,11.946-3.544l0.144-0.021
	c1.699,1.54,3.482,2.796,5.709,3.241c2.997,0.626,5.872-0.264,7.999-2.087c3.239-2.592,4.738-6.54,5.447-10.509l0.201-0.243
	c0.446-0.263,0.831-0.85,1.419-0.587c0.161,0.122,0.243,0.324,0.263,0.527l-1.073,6.743c-0.061,0.263-0.121,0.547-0.242,0.81
	c-0.688,0.912-1.984,0.77-3.119,0.83c-0.284,1.377-0.486,2.775-0.729,4.151h1.924l24.218,0.041c0.222-1.377,0.525-2.713,0.708-4.09
	c-0.668-0.082-1.417-0.021-1.964-0.406c-0.547-0.304-0.507-0.992-0.527-1.6c0.446-2.531,0.932-5.042,1.316-7.573
	c0.324-2.187,1.095-4.354,0.648-6.683c-0.405-1.741-1.66-3.584-3.523-3.887c-3.199-0.425-5.75,1.215-8.019,3.078l-0.041-0.041
	c0.244-1.417,0.426-2.875,0.648-4.272l-11.987,7.694c-0.061,0.061-0.182,0.061-0.242,0c-0.853-2.592-2.755-4.96-5.367-5.913
	c-4.779-1.62-9.577,0.688-12.575,4.07c-0.08,0.041-0.161,0.182-0.242,0.101l1.095-3.078c-2.229,0.506-4.739,0.303-7.17,0.344
	l-0.039-0.122l0.484-2.653c0.225-1.195,0.433-2.458,0.585-3.698l-2.387,1.491l-7.249,4.678c-0.162,0.081-0.283,0.243-0.485,0.162
	l0.081-0.627l1.62-9.639c0.08-0.77,0.283-1.519,0.304-2.268c-1.377-0.041-2.897-0.041-4.314,0c-0.101,0.446-0.343,0.912-0.789,1.154
	c-0.668,0.567-1.6,0.081-2.33-0.061c-0.571-0.191-1.143-0.384-1.724-0.556C157.787,4.414,156.482,4.141,155.025,4.21z
	 M221.928,38.613l-11.584-0.021l-0.08-0.121l0.446-2.836c0.971-0.06,1.902-0.343,2.47-1.133c0.324-0.607,0.385-1.316,0.525-2.005
	l1.216-7.876c0.04-0.79-0.344-1.56-0.991-1.944c-0.974-0.547-2.289-0.263-3.079,0.425c-0.972,0.75-1.497,1.904-1.822,3.098
	l-1.316,7.675c0.061,0.729,0.567,1.234,1.175,1.498c0.243,0.081,0.527,0.081,0.749,0.224c-0.101,0.972-0.309,2.115-0.451,3.088
	l-0.177,0.01h-11.785c0-1.013,0.284-1.965,0.406-2.957l0.04-0.08c1.113-0.021,2.287-0.041,3.037-0.852l0.324-0.647
	c0.526-2.592,0.87-5.244,1.336-7.836c-0.061-0.446-0.242-0.851-0.647-1.073c-1.095-0.263-2.045,0.526-2.733,1.215
	c-0.325,2.005-0.892,3.929-1.722,5.73c-0.79,1.741-1.965,3.139-3.382,4.535c-1.803,1.52-4.069,2.33-6.642,2.086
	c-2.732-0.162-5.002-1.843-6.763-3.686c-1.174,0.79-2.309,1.721-3.564,2.389c-2.471,1.419-5.649,2.532-8.565,1.479
	c-2.732-1.337-3.038-4.617-2.793-7.513l0.242-1.579l1.601-8.525l-0.021-0.061c-1.053-0.081-2.086-0.061-3.158-0.081
	c0.121-0.81,0.263-1.661,0.464-2.471c3.525-2.228,7.003-4.531,10.626-6.778l-0.054,0.481l-0.832,5.062l0.163,0.061l6.418,0.021
	v0.222l-1.538,4.05c-0.264-0.061-0.486-0.223-0.749-0.304l-0.749-0.122l-4.131-0.04l-0.103,0.142l-1.639,9.902
	c-0.082,1.153,0.364,2.247,1.377,2.732c1.336,0.547,2.552-0.303,3.645-0.829l1.821-1.135c-1.053-4.697,0.325-9.517,3.646-12.635
	c2.895-2.937,7.41-4.982,11.643-3.26c2.652,1.134,4.171,3.604,4.9,6.277l0.141-0.021l8.263-5.285
	c1.093-0.688,2.105-1.438,3.24-2.024l0.061,0.101c-0.182,1.478-0.548,2.875-0.709,4.354c0.485-0.202,0.85-0.688,1.337-1.012
	c2.308-1.944,5.405-4.232,8.646-2.633c1.763,1.275,2.369,3.645,1.964,5.913l-0.688,3.827l-1.255,6.602
	c-0.162,0.81-0.365,1.883,0.283,2.511c0.506,0.525,1.275,0.628,2.006,0.709l0.039,0.04C222.23,36.649,222.089,37.642,221.928,38.613
	z M165.514,16.096l-0.102,0.061l-3.098-0.061c0.141-1.661,0.445-3.706-0.588-5.021c-1.012-1.519-2.835-2.309-4.778-2.045
	c-1.498,0.243-2.876,1.174-3.342,2.652c-0.344,1.133-0.243,2.571,0.304,3.563c1.377,2.39,3.442,4.192,5.265,6.278
	c2.673,3.179,6.135,6.297,5.649,11.056c-0.385,3.908-2.612,7.918-6.357,9.335c-2.37,1.032-5.609,1.094-8.038,0.182
	c-1.662-0.546-3.2-1.297-4.922-1.68c-0.567-0.04-1.134,0.182-1.438,0.647c-0.141,0.202-0.201,0.486-0.264,0.749
	c-0.769,0.345-1.538,0.628-2.349,0.83l-0.789-2.146l-3.038-8.891l0.041-0.08c1.094-0.304,2.146-0.729,3.26-0.992
	c1.337,3.929,4.922,7.209,9.315,7.37c2.085,0.142,3.988-0.668,5.102-2.247c1.114-1.56,1.216-4.131,0.224-5.791
	c-2.45-4.779-7.857-7.715-9.093-13.163c-0.546-1.66-0.364-3.746,0.163-5.366c0.971-3.098,3.745-5.649,6.965-6.176
	c1.378-0.264,3.018-0.264,4.374,0.061c1.499,0.304,2.835,1.053,4.414,1.174c0.79,0.061,1.479-0.425,1.823-1.093l0.222-0.405
	l2.876,0.061c0.021,0.223,0,0.465-0.04,0.688L165.514,16.096z M143.118,20.996c-0.244,0.062-0.507-0.061-0.771-0.04
	c-1.538-0.061-3.017,0.445-3.826,1.68c-1.073,1.52-1.235,3.503-2.126,5.124c-1.58,2.835-4.395,5.042-7.877,5.082
	c-1.742,0.162-3.301-0.263-4.8-0.729c-0.445,0.647-0.546,1.762-0.121,2.471c0.688,0.992,2.045,0.829,3.179,0.789
	c2.774-0.182,5.711-0.607,8.484-0.101c1.356,0.385,2.957,1.275,3.119,2.854c0.121,2.249-1.235,4.01-2.471,5.609
	c-2.814,3.159-6.439,5.689-10.753,6.338c-4.616,0.831-9.577,0.081-13.181-2.53c-0.972-0.75-1.681-1.782-1.479-3.119
	c0.608-3.199,3.483-4.637,5.973-6.115v-0.021l-1.376-0.061l-10.327-0.041l-0.04-0.041l0.425-2.449
	c1.032-0.183,2.126-0.485,2.673-1.499l0.222-0.729l1.438-8.565c0.061-0.749-0.041-1.498-0.507-1.984
	c-0.506-0.526-1.315-0.648-2.065-0.486c-1.944,0.709-3.3,2.511-3.604,4.536l-1.033,6.5c0.021,0.526,0.122,1.033,0.466,1.396
	c0.345,0.346,0.83,0.507,1.296,0.648l0.061,0.121l-0.425,2.511H92.475c0.061-0.85,0.263-1.659,0.385-2.489
	c0.952-0.123,1.984-0.405,2.43-1.276l0.243-0.749l1.256-7.411c0.02-0.507-0.182-0.972-0.607-1.215
	c-0.466-0.182-1.074-0.182-1.479,0.101l-0.182-0.02l-1.376-2.329l0.142-0.162l11.825-7.29h0.041l-0.02,0.506
	c-0.264,1.701-0.608,3.361-0.851,5.062c0.446-0.263,0.708-0.668,1.114-1.032c2.126-1.964,4.211-4.05,7.351-4.01
	c1.519,0.162,2.916,0.912,3.625,2.288c0.384,0.871,0.425,1.924,0.304,2.896l-1.539,10.002l-0.324,2.35
	c0,0.606,0.385,1.134,0.871,1.478c0.425,0.244,0.952,0.386,1.499,0.365c0.384-1.236,0.87-2.451,1.964-3.24
	c0.607-0.426,1.336-0.749,2.065-0.992c-0.364-0.547-0.891-1.135-1.296-1.721c-1.782-2.289-1.519-6.116-0.182-8.525
	c1.417-2.754,4.171-4.698,7.249-5.164c3.118-0.465,6.398-0.061,8.646,1.984c0.647,0.627,1.356,1.377,1.983,2.005
	c1.014-1.782,2.613-3.362,4.598-3.928c0.769-0.223,1.579-0.344,2.409-0.365l0.041,0.062L143.118,20.996z M92.05,12.917
	c-1.418,1.458-3.746,2.188-5.751,1.377c-0.81-0.324-1.174-1.174-1.235-2.025c-0.061-2.288,1.903-3.928,3.767-4.677
	c1.214-0.425,3.098-0.77,4.069,0.364c0.648,0.627,0.851,1.539,0.709,2.471C93.426,11.439,92.718,12.208,92.05,12.917z
	 M54.853,31.283c-1.863,2.915-4.556,5.689-8.039,6.5c-2.167,0.588-4.698,0.323-6.52-0.811c-3.159-1.821-5.022-5.406-4.961-9.232
	c0.04-0.628,0.083-1.099,0.184-1.729c0.022-0.167,0.138-0.991,0.218-1.195c0.326-1.212,0.314-1.073,0.526-1.597
	c1.186-2.923,3.587-5.017,6.158-6.616c1.863-1.073,3.969-1.58,6.237-1.6c3.199,0.142,6.176,2.208,7.29,5.143
	c1.174,2.794,1.134,6.723-0.223,9.416L54.853,31.283z M25.561,4.139c0.728,0.051,1.455,0.115,2.178,0.193
	c1.762,0.243,3.523,0.526,5.083,1.235c0.061,0.02,0.162,0.061,0.243,0.061c2.673,1.032,4.758,3.28,5.75,5.953
	c0.972,3.503-0.162,7.148-2.632,9.538c-1.478,1.458-3.402,2.43-5.427,2.956c-0.02,0.567,0.142,1.154,0.223,1.722
	c0.871,4.718,3.24,9.051,6.602,12.372c4.272,4.192,10.206,7.35,16.746,5.932c1.417-0.443,2.834-1.578,2.997-3.198
	c0-0.871-0.182-1.721-0.891-2.248c-0.405-0.303-0.851-0.526-1.357-0.628l-0.02-0.04c-0.607-0.081-1.255-0.081-1.903-0.101
	l-0.041-0.102l0.466-2.592c0.547-0.121,1.255,0,1.762-0.264c0.425-0.223,0.79-0.526,0.972-0.992l0.526-2.713l2.733-15.43
	c0.021-0.344-0.02-0.669-0.223-0.932c-0.283-0.344-0.749-0.365-1.174-0.324c-0.284,0.061-0.566,0.142-0.83,0.223l-1.417-2.329
	l0.02-0.081l6.844-4.313l4.779-3.057l0.405-0.183l0.041,0.041l-0.121,0.911l-2.957,16.767l-1.782,10.65
	c-0.041,0.79,0.384,1.458,1.032,1.822c0.344,0.184,0.75,0.264,1.154,0.324l0.041,0.121l-0.405,2.431
	c-1.944,0.081-3.686-0.021-5.568,0.101c1.478,0.729,3.26,1.823,3.645,3.585c0.425,2.065-0.567,3.888-2.025,5.081
	c-5.083,3.99-13.324,2.715-18.953,0.729c-5.164-2.025-9.537-5.306-13.182-9.679c-3.037-3.726-5.042-8.039-6.561-12.554
	c-0.79-0.061-1.64-0.202-2.43-0.061l-0.263,1.215l-1.397,7.917c0,1.095,0.811,1.863,1.742,2.229
	c0.446,0.162,0.932,0.223,1.438,0.263c-0.102,1.114-0.364,2.146-0.526,3.22l-0.14,0.048H4.394c-0.149-0.015-0.364,0.035-0.326-0.108
	c0.182-1.135,0.324-2.309,0.587-3.381c1.924,0.182,4.131,0,5.144-1.742l0.223-0.79l4.718-25.817c0.02-0.041-0.021-0.081-0.061-0.081
	c-2.248-0.101-4.232,0.607-5.933,1.822c0.344,0.466,0.769,0.83,0.992,1.377c0.446,0.87,0.284,2.106-0.303,2.875
	c-0.851,1.235-2.552,1.803-4.192,1.458c-1.336-0.223-2.592-1.276-2.916-2.632c-0.445-2.309,0.75-4.395,2.552-5.629
	c1.6-1.174,3.564-1.6,5.467-2.106C15.154,4.102,20.399,3.78,25.561,4.139z M212.815,33.288c-0.162,0.526-0.446,1.073-0.973,1.275
	c-0.891,0.364-2.228,0.405-3.057-0.183c-0.306-0.344-0.325-0.83-0.264-1.275l1.234-7.006c0.305-1.053,0.933-2.005,1.863-2.673
	c0.466-0.243,1.135-0.385,1.642-0.162c0.303,0.122,0.606,0.344,0.748,0.648c0.182,0.466,0.102,1.094,0.061,1.6L212.815,33.288z
	 M177.805,30.514c0.04,0.466,0.183,0.952,0.203,1.397c-1.236,0.729-2.431,1.943-4.092,1.619c-0.425-0.202-0.851-0.587-0.951-1.113
	c-0.121-0.526-0.081-1.154-0.041-1.701l1.519-8.606l0.102-0.04c1.499,0.202,3.483-0.526,4.637,0.648
	C178.088,25.046,177.48,27.699,177.805,30.514z M108.674,25.107c-0.567,2.795-0.912,5.69-1.499,8.504
	c-0.344,0.689-1.032,1.054-1.802,1.094c-0.81,0.021-1.782,0.04-2.105-0.789c-0.163-0.386-0.163-0.892-0.102-1.317l1.114-6.358
	c0.405-1.255,1.417-2.591,2.733-2.936c0.425-0.121,1.013-0.162,1.316,0.223C108.796,23.872,108.735,24.56,108.674,25.107z
	 M94.864,32.782c-0.061,0.627-0.243,1.274-0.81,1.641c-0.891,0.525-2.247,0.464-3.239,0.161c-0.426-0.243-0.709-0.668-0.669-1.195
	l0.041-0.688l1.66-9.679h0.061c0.81,1.094,1.438,2.207,2.288,3.24c0.446-0.244,0.912-0.648,1.479-0.405
	c0.162,0.101,0.222,0.304,0.243,0.486L94.864,32.782z M81.662,33.571c-0.547,1.094-1.903,1.134-3.038,1.033
	c-0.486-0.102-1.073-0.325-1.235-0.871c-0.203-0.729,0.041-1.539,0.141-2.288c0.446-2.855,0.952-5.69,1.438-8.525
	c0.122-0.081,0.122,0.102,0.182,0.142l2.025,3.402c0.425-0.142,0.85-0.526,1.356-0.344c0.385,0.203,0.284,0.749,0.243,1.114
	L81.662,33.571z M68.743,33.105c-0.162,0.891-1.094,1.195-1.883,1.337c-0.851,0.162-1.923,0.142-2.491-0.467
	c-0.384-0.465-0.384-1.174-0.284-1.781l0.992-5.812l2.35-13.425l0.061-0.041c0.708,1.033,1.357,2.188,2.085,3.26l0.122,0.122
	c0.465-0.223,0.952-0.77,1.539-0.445c0.263,0.223,0.243,0.607,0.182,0.911L68.743,33.105z M55.521,33.673
	c-0.304,0.506-0.972,0.525-1.539,0.606c-0.061-0.02-0.142-0.02-0.223-0.041l0.02-0.141c0.972-1.094,1.681-2.369,2.37-3.625
	C56.047,31.566,55.905,32.681,55.521,33.673z M165.352,28.711l-0.042,0.082c-0.201-0.223-0.222-0.588-0.383-0.852
	c-2.31-5.001-7.209-8.261-10.146-12.858c-0.688-1.073-0.829-2.854-0.04-3.928c0.729-1.032,2.024-1.619,3.423-1.417
	c1.296,0.182,2.308,0.972,3.037,1.964c0.911,1.518,0.283,3.543,0.04,5.183c1.499,0.142,3.099,0.082,4.576,0.162l-0.02,0.122
	l-1.965,1.256c-0.262,1.154-0.425,2.349-0.628,3.523l0.142,0.061l3.059,0.061l0.061,0.061l-0.686,4.048L165.352,28.711z
	 M45.74,42.683c-3.908-1.478-7.087-4.394-9.781-7.632c-2.187-3.079-3.746-6.603-4.231-10.47c1.438-0.425,2.733-1.174,3.908-2.045
	c-0.102,0.566-0.365,1.134-0.506,1.721c-0.567,2.208-0.79,5.022,0,7.189c1.073,3.401,3.888,6.763,7.674,7.208
	c3.747,0.467,7.27-0.81,9.7-3.28c0.041,0.467-0.081,0.992-0.162,1.458c-0.122,0.587-0.182,1.175-0.284,1.762
	c1.62,0.102,3.706-0.121,4.353,1.6c0.284,1.174-0.445,2.228-1.356,2.774c-1.166,0.574-2.5,0.792-3.861,0.781
	C49.294,43.729,47.346,43.261,45.74,42.683z M143.745,33.794c-1.113-1.215-1.802-2.693-2.368-4.212
	c-1.58,0.405-3.14,0.911-4.678,1.458l1.741,5.325h-0.041c-1.963-2.47-5.386-2.268-8.362-2.045c-1.458,0.122-2.855,0.203-4.313,0.324
	c-0.607-0.061-1.377-0.161-1.559-0.851c-0.041-0.264-0.021-0.587,0.101-0.81c1.478,0.425,3.098,0.749,4.779,0.606
	c4.07-0.323,7.472-3.239,8.687-6.985c0.709-1.822,1.134-4.475,3.544-4.758c0.749-0.183,1.599-0.061,2.348,0.041
	c0.567-1.984,1.155-3.949,1.682-5.953h0.081c0.467,2.551,1.83,4.999,3.361,6.763c1.918,2.209,3.948,4.252,5.568,6.54
	c1.113,1.56,1.6,3.97,0.587,5.731c-0.444,0.811-1.153,1.396-2.004,1.761c-0.818,0.315-1.642,0.453-2.45,0.448
	C147.873,37.162,145.439,35.689,143.745,33.794z"/>
<path fill="#FFFFFF" d="M242.419,24.236l-7.391,3.504l-4.191,2.004c-0.122,0.547,0.283,0.951,0.404,1.418
	c0.607,1.255,1.702,2.511,3.261,2.49c0.85,0.021,1.619-0.283,2.125-0.972v-0.122c-0.729-0.364-1.256-1.093-1.396-1.863
	c-0.263-1.519,0.628-2.732,1.701-3.441c0.911-0.648,2.268-0.851,3.361-0.466c1.619,0.648,2.592,2.308,2.612,4.05
	c-0.121,2.328-1.377,4.271-2.978,5.791c-2.854,2.491-7.106,3.502-10.893,2.207c-3.929-1.378-6.562-5.387-6.825-9.599
	c-0.161-3.381,1.054-6.297,2.552-8.95c2.37-3.543,6.218-5.791,10.691-5.629c2.977,0.203,5.67,2.167,6.824,4.86
	c0.588,1.295,0.952,2.713,1.093,4.211L242.419,24.236z M242.56,23.507c-0.363-2.835-1.538-5.629-3.988-7.128
	c-2.633-1.782-6.642-1.052-9.173,0.446c-3.077,1.681-4.859,4.86-5.872,8.059c-1.194,3.564-0.344,7.695,1.863,10.449
	c2.045,2.592,5.366,3.665,8.768,3.18c3.564-0.548,6.621-2.877,7.613-6.42c0.365-1.316,0.162-2.875-0.749-3.807
	c-0.729-0.81-2.045-1.012-3.099-0.628c-0.991,0.506-1.902,1.438-1.821,2.674c0.04,0.688,0.485,1.296,1.072,1.64
	c0.223,0.162,0.608,0.081,0.771,0.344c-0.75,1.377-2.228,2.35-3.888,2.107c-1.944-0.265-3.262-1.885-3.848-3.626
	c-0.103-0.385-0.284-0.789-0.284-1.215l6.541-3.118L242.56,23.507z"/>
</svg>
